<?xml version="1.0" encoding="utf-8"?>
<!-- Generator: Adobe Illustrator 23.0.0, SVG Export Plug-In . SVG Version: 6.00 Build 0)  -->
<svg version="1.1" id="Layer_1" xmlns="http://www.w3.org/2000/svg" xmlns:xlink="http://www.w3.org/1999/xlink" x="0px" y="0px"
	 viewBox="0 0 731.1 731.1" style="enable-background:new 0 0 731.1 731.1;" xml:space="preserve">
<style type="text/css">
	.st0{fill:#3A3A3A;}
	.st1{fill:#FFFFFF;}
	.st2{fill:#E6E6E6;}
	.st3{fill:#1A1A1A;}
	.st4{fill:#0A0A0A;}
</style>
<g id="_x23_3a3a3aff_1_">
	<path class="st0" d="M167.3,541.5c-2.8-3.6-5-7.5-7.2-11.3c-1.7-3-3.5-6.1-5.5-9l-0.1-0.1c-7.4-11.9-14.8-24.1-22-35.9
		c-3.1-5.1-6.1-10.1-9.2-15.1l-1.5-2.4l2.7-0.6c6.4-1.4,13-2,19.4-2.7c2.4-0.2,4.8-0.5,7.3-0.7c9-1,18.2-1.7,27.1-2.4
		c8.2-0.7,16.6-1.3,24.9-2.2c0.6-4.3,0.8-8.8,1.1-13.1c0.2-3.6,0.4-7.3,0.8-11c0.6-6.7,1.1-13.7,1.5-20.3c0.5-8.2,1.1-16.6,2-24.9
		l4,0.1c0.7,9.6,0.7,19.4,0.6,28.8c0,8,0,16.4,0.4,24.5c0.2,3.4,0.2,6.9,0.1,10.3c-0.1,6.9-0.2,13.4,1.7,19.8
		c0.5,1.7,0.9,3.4,1.4,5.1c1.6,5.8,3.3,11.8,4.4,17.8l0.4,2.4l-4.7,0c-2.8,0-4.9,0-6.9-0.1l-1.3,0l-0.5-1.2
		c-1.2-2.9-2.6-5.8-3.9-8.6c-1.2-2.6-2.5-5.3-3.6-8l-0.4-0.9c-0.8-1.7-1.5-3.4-2.6-4.8c-0.7-0.2-1.5-0.3-2.6-0.3
		c-0.7,0-1.4,0-2.1,0.1c-0.4,0-0.7,0-1.1,0.1c-6.7,0.5-13.5,1-20.1,1.6c-9.3,0.8-19,1.6-28.5,2.1c1.5,4.2,3.5,8.2,5.5,12.1l0.5,1
		l1.7,3.7c5.3,11.6,10.7,23.7,16.4,35.3c1.5,3.2,2.6,6.5,3.4,9L167.3,541.5z"/>
	<path class="st0" d="M287.1,498.5l-0.5-1.2c-3.1-7.5-7-14.7-10.8-21.8c-2.9-5.3-5.8-10.8-8.5-16.4l-1.2-2.6l2.9-0.2
		c10.7-0.9,21.5-0.9,32-1c8.4,0,17.1-0.1,25.6-0.6l0.7,0c1.4-0.1,2.8-0.1,4.3-0.1c1.9,0,3.5,0.1,5.1,0.4l1.3,0.2l0.3,1.3
		c0.5,2.2,0.6,4.3,0.8,6.6c0.3,9.7,1,19.6,1.7,29.1l0.4,6.4h-9.8l-0.3-1.6c-0.7-3.4-1.4-6.9-2.1-10.3c-1-4.9-2-10-3.2-15
		c-4.8-0.3-10-0.4-16.3-0.4c-4.3,0-8.7,0.1-13,0.1c-1.8,0-3.6,0-5.3,0.1c0.9,4.3,2.3,8.6,3.7,12.8c1.3,3.8,2.5,7.8,3.5,11.8l0.6,2.4
		l-2.9,0c-1.7,0-3.4,0-5.1,0L287.1,498.5z"/>
	<path class="st0" d="M357.2,498.5l-0.1-1.9c-0.3-7.1-0.7-14.3-1.1-21.3c-0.3-6.3-0.7-12.5-1-18.8l-0.1-2.1l2.1,0
		c11.5-0.1,23.1-0.2,35.7-0.2c10.2,0,20.7,0,32.1,0.1l1.9,0l0,2c0.1,7.6,0.1,15.2,0.1,22.7c0,5.7-0.1,11.7,0,17.5l0,2l-2,0
		c-1.9,0-3.8,0-5.7,0h-1.8l-0.2-1.8c-0.2-2.2-0.4-4.5-0.6-6.8c-0.6-6.6-1.2-13.4-2.7-19.9c-2-0.6-4.3-0.6-6.6-0.7
		c-0.5,0-0.9,0-1.4,0c-4,0.1-8,0.1-11.4,0.1l-7.7,0c-6.1,0-11.4,0-16.7,0.2c-0.9,7-1.4,14.2-2,21.2c-0.1,1.9-0.3,3.9-0.5,5.8
		l-0.1,1.8l-1.8,0c-2.2,0-4.5,0-6.7,0L357.2,498.5L357.2,498.5z"/>
	<path class="st0" d="M643.5,542.5c2.9-4.7,6.4-9,9.8-13.2l0.2-0.3c3.5-4.5,7.2-9,10.8-13.4c6.2-7.6,12.6-15.4,18.6-23.4
		c-3.9-1-8.2-1.9-13.6-2.7c-47.7-8.1-98.7-13.2-165.4-16.4c-5.4-0.2-10.9-0.4-16.3-0.7c-7.7-0.4-15.6-0.8-23.4-0.8c-1.4,0-2.7,0-4,0
		c-1,3.1-2.1,6.2-3.2,9.2c-1.9,5.3-3.8,10.8-5.5,16.2l-0.4,1.4l-1.5,0c-1.8,0-3.7,0-5.5,0c-1.3,0-6.3,0-6.3,0l0.3-2.3
		c0.9-6.3,1.8-12.7,2.6-18.9c0.9-6.6,1.8-13.3,2.7-20l0.2-1.6l1.6-0.1c2.8-0.2,5.7-0.2,8.6-0.2c4.3,0,8.7,0.2,13.6,0.5
		c70.3,2.7,143.1,10,216.5,21.8c6.4,0.8,11.8,1.7,17.2,3.3l2.8,0.8l-1.8,2.3c-5,6.6-10.8,12.6-16.3,18.5c-1.8,1.9-3.7,3.9-5.5,5.9
		c-3,3.3-6,6.6-8.9,9.9c-3.3,3.7-6.7,7.4-10,11.1c-1.6,1.7-3.2,3.4-4.7,5.1c-3.2,3.6-6.5,7.3-10.3,10.5L643.5,542.5z"/>
	<path class="st0" d="M91.8,551.6c-6.6-5.6-12.6-12-18.4-18.2c-3-3.2-6-6.5-9.1-9.6c-12.2-12.1-25.2-25.3-37.8-39.2l-2.4-2.6
		l3.5-0.7c7.7-1.6,15.6-2.7,23.3-3.9c2.1-0.3,4.3-0.6,6.4-1c7.5-1.5,15.3-2.7,22.8-3.9c5.9-0.9,12-1.9,18-3l0.1,0l0.1,0
		c0.3,0,0.7-0.1,1.1-0.1c0.6-0.1,1.3-0.2,2-0.2c1.7,0,3,0.6,3.9,1.8c2.5,2.7,4.2,5.9,5.9,8.9c0.9,1.6,1.8,3.2,2.8,4.7
		c4,6.2,7.9,12.6,11.6,18.8c2.8,4.6,5.7,9.4,8.6,14l0.1,0.1c1.5,2.8,3.2,5.5,4.9,8.1c2.8,4.3,5.7,8.8,7.6,13.8l2.7,7l-5.8-4.8
		c-3.3-2.7-5.9-6.1-8.4-9.4c-1-1.3-2-2.6-3-3.8c-3-3.6-5.9-7.2-8.8-10.7c-6.4-7.8-13-15.9-19.7-23.8c-1-1.2-2-2.5-3-3.8
		c-1.8-2.5-3.6-4.8-5.8-6.5c-0.3,0-0.7,0-1,0c-2.1,0-4.1,0.4-6.3,0.8c-1.1,0.2-2.2,0.4-3.4,0.6c-2.2,0.3-4.4,0.7-6.6,1
		c-9.5,1.4-19.2,2.9-28.7,4.8c1.9,2.9,4.1,5.5,6.5,8.3c1.2,1.4,2.4,2.8,3.6,4.2c7.6,9.7,15.5,19.5,23.1,28.9
		c3.1,3.9,6.3,7.8,9.4,11.7c1.2,1.6,2.2,3.2,3.3,5L91.8,551.6z"/>
	<path class="st0" d="M210.6,390c1.3,17.7,0.1,35.5,1,53.3c0.6,10.2-1,20.6,1.8,30.5c2.1,7.5,4.4,15,5.8,22.7c-3,0-6.1,0-9.1-0.1
		c-2.4-5.6-5.1-11-7.6-16.6c-1-2.3-2-4.7-3.6-6.6c-2.2-0.8-4.7-0.5-7-0.4c-17.1,1.2-34.1,3-51.2,3.9c1.6,5.6,4.3,10.7,6.9,15.9
		c5.9,13,11.8,26.1,18,39c1.3,2.8,2.4,5.8,3.3,8.7c-4.9-6.4-8.2-13.7-12.7-20.3c-10.5-17-20.8-34-31.2-51.1
		c8.7-1.9,17.6-2.4,26.4-3.4c17.8-1.9,35.7-2.9,53.5-4.7c1.4-8.5,1.2-17.1,2.1-25.7C208.5,420.2,208.9,405,210.6,390z"/>
	<path class="st0" d="M326.7,456.7c3.2-0.2,6.4-0.4,9.6,0.2c0.5,2,0.6,4.2,0.7,6.3c0.4,11.1,1.2,22.3,2,33.4c-2,0-4,0-6,0
		c-1.9-8.9-3.5-17.9-5.6-26.7c-12.9-0.8-25.8-0.4-38.6-0.3c1.5,9.3,5.5,17.8,7.6,27c-2.6,0-5.2,0-7.8,0
		c-5.5-13.2-13.2-25.3-19.3-38.3C288.3,456.7,307.5,457.7,326.7,456.7z"/>
	<path class="st0" d="M357.1,456.4c22.6-0.2,45.2-0.2,67.8-0.1c0.2,13.4-0.1,26.8,0,40.2c-1.9,0-3.8,0-5.7,0c-1-9.3-1.4-18.8-3.6-28
		c-3-1.3-6.4-1.1-9.7-1.2c-12.5,0.2-25-0.1-37.5,0.3c-1.3,9.6-1.9,19.2-2.7,28.8c-2.2,0-4.5,0-6.7,0
		C358.5,483.1,357.7,469.8,357.1,456.4z"/>
	<path class="st0" d="M445.5,457.6c7.3-0.4,14.6-0.2,21.9,0.2c72.5,2.8,144.7,10.3,216.3,21.8c5.7,0.7,11.4,1.6,16.9,3.3
		c-6.6,8.6-14.3,16.3-21.7,24.2c-6.3,7-12.6,14-19,21c-4.9,5.1-9.3,10.8-14.8,15.4c2.9-4.7,6.4-9,9.9-13.2
		c10.4-13.1,21.2-25.8,31.2-39.2c-5.4-1.7-11-2.7-16.7-3.5c-54.7-9.3-110.1-13.8-165.5-16.4c-15.1-0.4-30.2-1.9-45.2-1.5
		c-3,9-6.5,17.7-9.1,26.8c-3.2,0-6.3,0-9.5,0C442,483.5,443.6,470.5,445.5,457.6z"/>
	<path class="st0" d="M98.4,471.7c1.8-0.1,4.1-1,5.4,0.7c3.6,4,5.7,9,8.6,13.4c7,10.8,13.4,21.9,20.2,32.7
		c3.9,7.4,9.4,13.8,12.4,21.7c-4.4-3.7-7.5-8.5-11.2-12.9c-9.5-11.5-18.9-23.1-28.5-34.5c-3.2-3.7-5.6-8.1-9.6-10.9
		c-3.9-0.4-7.8,0.8-11.7,1.3c-12.8,1.9-25.6,3.7-38.2,6.3c3,5.7,7.6,10.2,11.6,15.2c10.7,13.7,21.6,27.1,32.4,40.6
		c1.2,1.5,2.2,3.2,3.2,4.8c-9.9-8.4-18.2-18.4-27.4-27.6c-12.8-12.8-25.6-25.7-37.7-39.1c9.8-2,19.7-3.3,29.6-4.8
		C71.1,475.9,84.8,474.2,98.4,471.7z"/>
</g>
<g id="_x23_ffffffff">
	<path class="st1" d="M79.2,187.7c85.4-15.9,171.9-26.5,258.8-28.5c105.6-2.4,211.1,9.1,314.8,28.5c4.5,19.7,8.7,39.6,13,59.4
		c-81.8-14.1-164.5-24-247.5-27.2c0.7,24.1,1.9,48.2,2.5,72.4c0.8,12,0.5,24,1.3,36c1,40.1,2.3,80.2,3.2,120.3
		c-22.7-0.5-45.4-1-68.1-0.8c0-65.2,0.3-130.4,0.6-195.6c-0.1-11.1,0.6-22.2,0.4-33.4c-97.9,1.1-195.5,11.5-292,28.2
		C70.4,227.2,74.6,207.4,79.2,187.7 M363.6,319.8c-0.8,1.7-0.7,3.6-0.8,5.4c0.2,39-0.2,78,0.3,116.9c6.3,0.7,12.6,0.7,18.9,0.4
		c12.3,0.2,24.6,0.8,36.9,0.5c0.3-15-0.1-29.9-0.7-44.9c0.2-26.1-1.2-52.1-1.3-78.1c-2.9-0.6-5.9-1.2-8.9-1.1c-13,0.1-26-0.1-39-0.1
		C367.1,318.9,365.2,318.8,363.6,319.8z"/>
	<path class="st1" d="M278.8,232.9c20.5-1,41-1.8,61.5-2.2c0,8.2-0.2,16.4-0.6,24.6c-0.1,32.3-1.3,64.5-1.1,96.8
		c-0.1,16.2-0.1,32.4-0.2,48.5c-0.1,15.6-0.8,31.3-1.1,46.9c-22.7,0-45.5,1.3-68.2,1.6c-13.9-20.7-26.9-42-39.5-63.5
		c-16.1-27.3-32.3-54.6-47.4-82.6c-1.3-2.4-2.5-4.8-4.2-7c6.3,19.6,13.4,39.1,20.5,58.4c1.2,3.8,3.6,7.4,3,11.5
		c-2.3,29.3-4.5,58.5-6.3,87.8c-23.6,1.7-47.1,4.2-70.6,6.3c5.4-57.9,11.7-115.7,19.6-173.2c2.1-14,3.5-28,6.2-41.9
		c21.5-2.4,43-5.2,64.6-7.2c18.5,36.1,38.4,71.5,58.9,106.5c8.1,13.5,16,27.3,24.6,40.4c-7.8-20.6-15.8-41.2-23.4-61.9
		c-1.9-4.1-0.9-8.8-0.8-13.1C275.7,284,277.5,258.5,278.8,232.9 M280.1,320.2c2.2,8.5,6.5,16.2,9.4,24.4c2.3,6.8,5.4,13.3,7.8,20.1
		c2.2,6.6,5.9,12.7,7.7,19.4c1.7,4-2.6,8.9-6.8,7.7c-2.6-0.2-4-2.6-5.2-4.6c-8.6-15-18.1-29.4-26.6-44.4
		c-4.1-6.1-6.3-13.4-10.8-19.3c-2.2-3.2-6.6-1.9-9.9-1.9c-14.6,1.3-29.3,1-43.7,3.5c6.4,14,15.4,26.6,22.7,40.1
		c4.4,7.8,9,15.5,13.8,23.1c4.7,8.6,9.9,16.8,15.1,25c3.8,7,9,13.2,12.8,20.2c2,3.3,3.8,6.9,6.9,9.3c3.4,1.2,7.1,0.5,10.7,0.3
		c5.5-0.5,11,0,16.4-0.4c8.8-0.8,17.7,0,26.5-0.5c1.6-0.2,4-0.1,4.1-2.3c2.1-11.9-0.5-23.9,0.9-35.8c0.6-13.3,0.2-26.7,0.4-40
		c-0.5-15,1.9-30,0.8-45.1C315.4,318.6,297.7,319.7,280.1,320.2 M173,326.9c-9.6,1.2-19.4,1.2-28.9,3.3c-4.6,38-8.4,76.1-11.9,114.3
		c-0.3,3.1-0.8,6.3-0.6,9.4c6.2,0.5,12.2-1.4,18.4-1.5c13-1.6,26.1-2,39.1-3.3c0.9-4.8,1.2-9.6,1.5-14.4c1.5-18.5,3-37,4.2-55.5
		c0.3-5.7,2.2-11.5,0.4-17.1c-3.3-10.1-7.5-19.9-10.8-30c-0.6-1.7-1.2-3.5-2.1-5C179.3,325.8,176,326.8,173,326.9z"/>
	<path class="st1" d="M436.5,232.6c64.7,3.3,129.1,10.3,193.1,20.1c12.7,1.8,25.3,4.2,38,6c4.5,22.9,8.8,45.7,12.8,68.7
		c-2.2,1.8-4.9,2.6-7.4,3.9c-36,16.7-71.8,33.7-107,51.8c-19.8,10.2-39.6,20.3-59.1,30.9c25.3-8.3,50.5-17.1,75.9-25
		c4-1.2,8.2,0,12.2,0.4c32.5,3.6,64.9,8.1,97.3,12.6c3.4,23.3,6.3,46.7,9.3,70.1c-9.6-0.7-19-2.5-28.5-3.5
		c-66.7-8.6-133.8-14.8-201-18.2c-8.9-0.8-17.8-0.4-26.7-1.3c-1-13.6-0.6-27.3-1.5-40.9c-0.4-10-0.4-20-1.1-30
		c-0.4-1.6,1.3-2.2,2.4-2.9c37-20.8,74-41.7,111.6-61.5c15.5-8.4,31.3-16,46.6-24.6c-23.1,6-45.8,13.4-68.6,20.4
		c-3.5,0.6-7.2-0.1-10.7-0.3c-28-2.4-56.1-4.2-84.2-5.5C438.9,280,437.6,256.3,436.5,232.6 M545.4,326.2c-3.9,1.3-7.2,3.7-10.7,5.7
		c-8,4.9-16.5,8.7-24.7,13.3c-8,4.2-15.6,9.4-23.8,13.2c-12.5,7.3-25.4,13.9-37.6,21.6c0,5.7-0.1,11.4,0.4,17.1
		c0.9,9.1,0.3,18.3,1.2,27.5c0.6,6.3-0.6,12.9,1.1,19.1c4.1,1.2,8.3,0.7,12.5,0.9c13.6,0.8,27.1,1.5,40.7,2.2
		c17.1,1.6,34.3,2.3,51.4,4.2c16.3,1,32.6,3,48.8,4.5c9.5,1.4,19.1,1.7,28.6,3.2c18.1,2.2,36.3,3.9,54.3,6.9c2,0.1,4.5,1.1,6.3-0.5
		c0.3-6-1.5-11.8-1.8-17.8c-1.3-9.2-2.2-18.5-3.6-27.6c-0.6-4.2-0.3-8.8-2.3-12.7c-4.3-1.7-9.1-1.7-13.7-2.4
		c-27.2-4-54.5-7.2-81.7-10.4c-5.8-0.6-11,2.2-16.4,3.7c-12,3.4-23.6,7.9-35.5,11.5c-9.6,3-19,6.3-28.5,9.6c-2.7,0.8-5.9,2-8.5,0.3
		c-2.8-1.4-4.2-6-1.3-8.1c7.8-5.7,17.1-8.6,25.2-13.7c8.8-4.5,17.7-8.9,26.2-13.8c22.9-11.9,46-23.2,69.2-34.6
		c7.9-3.6,15.8-7.3,23.3-11.7c-8.7-2.5-17.8-2.8-26.8-4c-20.6-2.1-41.1-4.8-61.8-6.4C552.6,326.6,549,325.6,545.4,326.2z"/>
	<path class="st1" d="M63.9,258.9c22.1-3.5,44.2-7.4,66.4-10.4c-10.1,63.6-18.6,127.6-25.1,191.7c-1,7.6-1.4,15.3-2.4,23
		c-24.2,2.7-48.4,6.3-72.6,9c1.8-20,4.9-39.9,7.5-59.8C44.8,361,53.6,309.8,63.9,258.9 M105.9,333.8c-14.4,2-28.9,4-43.3,5.8
		c-2.8,0.5-5.8,0.5-8.2,2.1c-1.4,3.2-1.4,6.8-2,10.2c-5.5,35-10.4,70.2-14.6,105.4c-0.6,3.1-0.5,6.2,0,9.3c8-1.4,16.1-2.6,24.2-3.4
		c11.6-1.5,23.3-3.2,35-4.4c1.4-8.1,1.8-16.2,2.6-24.4c2.2-17.7,4.2-35.4,6.6-53.1c0.4-9.1,2.7-18,3.3-27c0.6-6.8,2.2-13.5,2.8-20.3
		C110,333.8,107.9,333.6,105.9,333.8z"/>
	<path class="st1" d="M222.6,521.5c95.4,0,190.7-0.1,286.1,0c7.8,17,15.9,33.8,23.8,50.7c-111.1,0.2-222.3,0-333.4,0.1
		C206.5,555.3,214.9,538.6,222.6,521.5 M229.9,529.1c-3.6-0.2-4.2,4.1-5.7,6.5c-4.1,9.7-9.4,18.9-13.5,28.6
		c21.7,1,43.5-0.3,65.2,0.7c8.3-0.3,16.6-0.5,25-0.3c9.3-0.3,18.6,0.9,28,0.1c46.3-0.1,92.7,0,139-0.1c17.2-0.2,34.3,0.4,51.5-0.3
		c-3.6-10.2-8.4-19.9-12.8-29.8c-1.2-2-1.9-5.4-4.7-5.2c-18.3-0.7-36.6,0.4-54.9-0.3C374.7,529.3,302.3,528.9,229.9,529.1z"/>
</g>
<g id="_x23_e6e6e6ff">
	<path class="st2" d="M351.8,133.7c15-1.6,30.1-0.1,45.1,0.4c8.7-0.7,17.3,1.6,26,1c5.9-0.2,11.7,1.3,17.7,0.8
		c22.5,1.1,45,3.4,67.4,5.3c11.7,1.5,23.3,2.9,35,3.9c10.2,1.7,20.4,2.7,30.6,4.5c10.1,2.4,20.5,2.7,30.6,5.1
		c14.6,2,29.1,5,43.6,7.4c7.9,1.4,15.8,2.8,23.6,4.6c10.2,41.3,19.8,82.8,27.4,124.7c2.7,10.2,3.6,20.7,6.1,31
		c0.8,5,1.9,9.9,2.4,14.8c0.3,1.8-1.1,3.1-2.1,4.3c-2.8,2.9-5.7,5.6-8.2,8.7c-6,7-12.9,13.1-19.3,19.8c-1.3,1.2-1.5,3-1.8,4.6
		c10.8,2,21.8,3,32.6,5c2.1,0.4,4.4,0.6,6.3,1.8c2.3,4.2,2.1,9.3,3,13.9c1.4,12.4,3.7,24.6,5.1,37c2.9,18,4.9,36.1,7.9,54.1
		c1.4,4.7-3.3,7.6-6.1,10.6c-27,27-54,54-81,81c-1.5,1.3-3.2,3.1-5.4,2.6c-16.9-2.6-33.8-5.5-50.9-6.2c-7.5-0.8-14.9-1.9-22.4-2.5
		c-2-0.1-3.8,0.4-5.7,0.9c3.8,8.3,8.3,16.3,10.8,25.1c-47.7,0.4-95.4,0.1-143.1,0.2c-58,0-116,0-174,0c-30.4-0.1-60.8,0.2-91.1-0.1
		c2.8-9.6,9-17.7,11.3-27.5c-12.4-0.2-24.7,1.9-37.1,3c-10.3,0.6-20.4,2.8-30.7,3.3c-5.3,0.2-10.7,2.2-15.9,0.8
		c-4.1-3.5-7.1-8.2-11.3-11.7c-12.5-10.4-23-23-35.2-33.8c-7-6.3-13.6-13-20.2-19.8c-4.6-4.8-10-8.6-14.5-13.5c-2.7-3-6.2-5.4-8.1-9
		c-0.5-4.4,1.1-8.6,1.7-12.9c2.7-17.2,5.8-34.4,8.4-51.6c0.7-9.5,3.3-18.7,4.3-28.1c2.3-11.6,3.3-23.4,6-34.9
		c1.7-6.8,1.7-13.9,4-20.6c2.2-9.5,3.1-19.3,5.4-28.9c2.7-9.2,3.4-18.8,5.6-28.1c1.8-11.1,4.2-22.2,6.6-33.2
		c2.1-12.9,5.2-25.7,7.6-38.5c1.9-10.5,5.1-20.7,6.8-31.3c1.1-5.1,1.7-10.5,3.9-15.4c8.4-2.7,17.4-3.2,26-5.1
		c11.1-2.7,22.6-3.6,33.7-6c18.3-2.8,36.5-6,54.8-8.2c10.2-0.5,20.3-2.7,30.5-3.6c14.9-1.3,29.6-3.6,44.5-4.4c7-0.5,14-1.2,21-2.2
		c11.7-0.6,23.4-1.1,35-2c6,0.3,12-0.2,18-0.9C333.3,134.6,342.5,133.8,351.8,133.7 M73.1,178.5c-1.6,0-1.5,2-1.9,3.1
		c-4,17.1-7.6,34.3-11.2,51.5C43,316.7,28.5,400.9,15.2,485.3c11.6,10.7,22.5,22,33.9,32.8c15.8,15,31.1,30.5,46.9,45.5
		c26-3.4,52.1-5.8,78.2-8c2.3-0.4,6,0.5,6.9-2.4c8.5-18.9,17.4-37.6,25.7-56.5c1.1-0.1,2.2-0.3,3.2-0.4c3,0.1,6.1,0.1,9.1,0.1
		c23.1,0,46.1,0,69.2,0c2.6,0,5.2,0,7.8,0c12.2,0,24.5,0,36.7,0c2,0,4,0,6,0c6.7,0,13.4,0,20.2,0c2.2,0,4.5,0,6.7,0
		c17.8,0,35.6,0,53.5,0c1.9,0,3.8,0,5.7,0c5.1,0,10.1,0,15.2,0c3.2,0,6.3,0,9.5,0c24.4,0,48.8,0,73.2,0c1.6-0.4,2,1.2,2.6,2.4
		c8.5,19,17.3,37.9,25.9,56.9c28.2,2.5,56.4,5.8,84.5,9.4c26.2-26.2,52.3-52.4,78.6-78.6c2.2-1.6,1.1-4.4,0.9-6.6
		c-4.2-28.9-8.1-57.8-12.5-86.7c-20-3.3-40.1-5.9-60.1-8.8c16.5-16.7,33.3-33.2,49.8-49.9c-0.1-6.2-2.1-12.2-2.9-18.3
		c-8.4-46.2-18.3-92.1-29.6-137.7c-104.4-19.9-210.6-32.6-317-30.5C252.3,149.9,162.1,161.4,73.1,178.5 M180.2,584.2
		c5.9,0.4,11.9,0.1,17.8-0.1c71.7,0,143.3,0,215,0c46,0.1,92.1-0.3,138.1,0.2c-7.7-17.3-15.6-34.4-23.7-51.5
		c-3.9-7.9-6.9-16.3-11.5-23.9c-100.3-0.1-200.6,0-300.9-0.1C203.2,533.9,191.8,559.1,180.2,584.2z"/>
	<path class="st2" d="M280.1,320.2c17.7-0.5,35.4-1.6,53-1c1.2,15-1.2,30-0.8,45.1c-0.1,13.3,0.3,26.7-0.4,40
		c-1.4,11.9,1.2,24-0.9,35.8c-0.1,2.2-2.5,2-4.1,2.3c-8.8,0.5-17.7-0.3-26.5,0.5c-5.5,0.5-11-0.1-16.4,0.4
		c-3.5,0.2-7.2,0.9-10.7-0.3c-3.1-2.4-4.9-6-6.9-9.3c-3.8-7-9-13.1-12.8-20.2c-5.2-8.2-10.4-16.5-15.1-25
		c-4.8-7.6-9.4-15.3-13.8-23.1c-7.4-13.5-16.3-26.1-22.7-40.1c14.4-2.6,29.2-2.3,43.7-3.5c3.3,0,7.6-1.3,9.9,1.9
		c4.4,5.9,6.7,13.1,10.8,19.3c8.5,15,18,29.4,26.6,44.4c1.2,2,2.6,4.4,5.2,4.6c4.2,1.2,8.5-3.7,6.8-7.7c-1.8-6.8-5.5-12.8-7.7-19.4
		c-2.3-6.8-5.4-13.3-7.8-20.1C286.6,336.4,282.3,328.7,280.1,320.2z"/>
	<path class="st2" d="M363.6,319.8c1.6-1,3.6-0.8,5.4-1c13,0,26,0.2,39,0.1c3,0,6,0.5,8.9,1.1c0.1,26,1.5,52.1,1.3,78.1
		c0.7,14.9,1.1,29.9,0.7,44.9c-12.3,0.3-24.6-0.4-37-0.5c-6.3,0.2-12.6,0.3-18.9-0.4c-0.5-39-0.1-78-0.3-116.9
		C362.8,323.4,362.8,321.5,363.6,319.8z"/>
	<path class="st2" d="M545.4,326.2c3.6-0.6,7.2,0.4,10.8,0.6c20.6,1.6,41.2,4.3,61.8,6.4c8.9,1.2,18,1.5,26.8,4
		c-7.5,4.4-15.4,8-23.3,11.7c-23.2,11.3-46.3,22.7-69.2,34.6c-8.6,4.9-17.5,9.2-26.2,13.8c-8.1,5.1-17.5,8-25.2,13.7
		c-2.9,2-1.5,6.7,1.3,8.1c2.6,1.7,5.8,0.5,8.5-0.3c9.5-3.2,18.9-6.6,28.5-9.6c11.9-3.7,23.5-8.1,35.5-11.5
		c5.4-1.5,10.7-4.3,16.4-3.7c27.3,3.2,54.5,6.5,81.7,10.4c4.5,0.7,9.3,0.7,13.7,2.4c2,3.9,1.7,8.5,2.3,12.7
		c1.3,9.2,2.3,18.4,3.6,27.6c0.3,6,2.1,11.8,1.8,17.8c-1.7,1.7-4.2,0.6-6.3,0.5c-18-3-36.2-4.7-54.3-6.9c-9.5-1.5-19.1-1.8-28.6-3.2
		c-16.3-1.5-32.5-3.6-48.8-4.5c-17.1-1.9-34.3-2.6-51.4-4.2c-13.6-0.7-27.1-1.3-40.7-2.2c-4.2-0.2-8.5,0.3-12.5-0.9
		c-1.7-6.2-0.5-12.7-1.1-19.1c-0.9-9.1-0.4-18.3-1.2-27.5c-0.5-5.7-0.4-11.4-0.4-17.1c12.2-7.7,25.1-14.3,37.6-21.6
		c8.2-3.8,15.8-9,23.8-13.2c8.1-4.6,16.7-8.4,24.7-13.3C538.2,329.9,541.6,327.5,545.4,326.2z"/>
	<path class="st2" d="M173,326.9c3-0.1,6.3-1.1,9.2,0.1c0.9,1.6,1.5,3.3,2.1,5c3.3,10.1,7.5,19.9,10.8,30c1.8,5.6-0.1,11.4-0.4,17.1
		c-1.3,18.5-2.8,37-4.2,55.5c-0.2,4.8-0.6,9.7-1.5,14.4c-13,1.3-26.1,1.7-39.1,3.3c-6.2,0.1-12.2,2.1-18.4,1.5
		c-0.3-3.2,0.2-6.3,0.6-9.4c3.5-38.1,7.3-76.2,11.9-114.3C153.6,328.1,163.4,328.1,173,326.9z"/>
	<path class="st2" d="M105.9,333.8c2.1-0.2,4.1,0,6.2,0.1c-0.6,6.8-2.1,13.5-2.8,20.3c-0.6,9.1-2.9,17.9-3.3,27
		c-2.4,17.7-4.3,35.4-6.6,53.1c-0.9,8.1-1.2,16.3-2.6,24.4c-11.7,1.2-23.3,2.9-35,4.4c-8.1,0.8-16.1,2-24.2,3.4
		c-0.5-3.1-0.5-6.2,0-9.3c4.2-35.2,9.1-70.4,14.6-105.4c0.5-3.4,0.6-7,2-10.2c2.4-1.5,5.5-1.6,8.2-2.1
		C77,337.8,91.4,335.8,105.9,333.8z"/>
	<path class="st2" d="M229.9,529.1c72.4-0.2,144.7,0.2,217.1-0.1c18.3,0.7,36.6-0.4,54.9,0.3c2.8-0.1,3.5,3.3,4.7,5.2
		c4.4,9.9,9.2,19.6,12.8,29.8c-17.1,0.7-34.3,0.1-51.5,0.3c-46.3,0-92.7,0-139,0.1c-9.3,0.8-18.6-0.4-28-0.1c-8.3-0.1-16.6,0-25,0.3
		c-21.7-1-43.5,0.3-65.2-0.7c4.1-9.7,9.4-18.9,13.5-28.6C225.8,533.2,226.4,528.9,229.9,529.1 M265.3,535c0,8.2-0.1,16.3,0,24.5
		c5.3,0,10.6,0,16,0c0-1.5,0-3,0-4.5c-3.8,0.1-7.7,0.1-11.5,0c0-1.9,0-3.8,0-5.7c3.3-0.2,6.6-0.2,10-0.4c-0.3-1.3,0.1-2.9-0.9-4
		c-3-0.2-6.1,0-9.1,0c0-1.8,0-3.7,0-5.5c3.8-0.1,7.7-0.1,11.5,0c0-1.5,0-3,0-4.4C275.9,535,270.6,534.9,265.3,535 M317.4,535.6
		c-4.7,1.5-6.1,8.5-2.4,11.7c2.7,2,6.2,1.7,9.3,2.7c1.5,1.3,1.4,3.1,0.1,4.5c-3.4,1.3-6.8,0.1-10-0.9c-0.9,1-1.7,2-2.5,3.1
		c4.2,2.8,9.7,4,14.4,1.6c4.8-2.1,5-10.3,0.1-12.4c-2.4-1-5.1-0.9-7.6-1.7c-2-1-1.7-4.3,0.5-4.8c2.5-1.2,5.2,0.3,7.7,0.9
		c0.8-1,1.6-2,2.5-3C325.9,535.2,321.4,533.8,317.4,535.6 M341.3,534.9c0,8.2,0,16.3,0,24.5c1.6,0,3.2,0,4.9,0c0-3.1,0-6.2,0-9.3
		c3.5-0.3,7.9,0.8,10.5-2.3c3.9-3.5,2.2-11.1-2.9-12.5C349.6,534.4,345.4,535.2,341.3,534.9 M373.5,535.8c-3.6,1.6-4.8,5.7-4.8,9.3
		c0,4.2-0.5,9.3,3,12.3c4.5,4.2,12.8,2.2,14.5-3.8c0.7-4,0.5-8,0.2-12C385.5,535.9,378.4,533.1,373.5,535.8 M398.5,534.9
		c0,8.2,0,16.4,0,24.6c1.6,0,3.2-0.1,4.8-0.1c0-3.3,0-6.5,0-9.8c1.1,0,2.2,0,3.3-0.1c1.7,3.3,2.8,7,5.3,9.8c1.6,0.1,3.3,0.2,5,0.2
		c-1.5-3.5-3.4-6.9-5.2-10.2c4.3-2.4,5.7-8.4,2.2-12.1C409.8,533.5,403.6,535.4,398.5,534.9 M426.1,535c0,1.4,0.1,2.8,0.1,4.2
		c2.1,0.1,4.2,0.1,6.2,0.1c-0.1,6.7,0,13.4,0,20.1c1.6,0,3.2,0,4.8,0.1c0-6.7,0-13.4,0-20c2.1-0.1,4.2-0.2,6.4-0.3
		c0-1.4,0-2.8,0-4.1C437.7,534.9,431.9,534.9,426.1,535 M457.3,535.5c-4.3,1.6-6.1,7.9-2.8,11.2c2.6,2.6,6.6,2,9.7,3.3
		c1.8,1.1,0.7,3.1,0.4,4.7c-3.3,0.5-6.9,0.5-9.8-1.3c-1,1-2.1,1.9-3.1,2.9c4.1,3.5,10.4,4.3,15.1,1.6c4.9-2.6,4-11.8-1.9-12.5
		c-2.6-0.9-6.3-0.2-7.6-3.2c0.7-5,6.5-3,9.7-2c0.8-1,1.6-2,2.5-2.9C465.9,535.1,461.4,533.8,457.3,535.5 M291.8,547.5
		c0,1.3-0.1,2.7-0.1,4.1c3.6,0,7.3,0.1,11,0c-0.4-1.3,0.5-4.4-1.7-4.1C297.8,547.4,294.8,547.5,291.8,547.5z"/>
	<path class="st2" d="M346.1,539.3c2.6,0,5.3,0,7.7,1.1c-0.3,1.8,0.5,4.2-1.5,5.2c-2,0.4-4.2,0.3-6.2,0.4
		C346.1,543.7,346.1,541.5,346.1,539.3z"/>
	<path class="st2" d="M376.3,539.4c2.1-1,5.2,0.6,5.4,3c0.5,3.4,0.7,7-0.2,10.4c-1.4,3.8-8.1,2.8-7.8-1.6
		C373.9,547.4,372,541.5,376.3,539.4z"/>
	<path class="st2" d="M403.3,539.4c2.1,0,4.2-0.1,6.3,0.3c2.2,1.2,2.1,4.2,0.2,5.7c-1.9,0.5-4,0.5-6,0.5
		C402.8,543.8,403.5,541.5,403.3,539.4z"/>
</g>
<g id="_x23_1a1a1aff">
	<path class="st3" d="M73.1,178.5c89-17.1,179.2-28.6,269.9-30.3c106.4-2.1,212.6,10.5,317,30.5c11.3,45.6,21.1,91.5,29.6,137.7
		c0.9,6.1,2.8,12.1,2.9,18.3c-16.5,16.7-33.3,33.2-49.8,49.9c20,2.9,40.1,5.5,60.1,8.8c4.4,28.9,8.2,57.8,12.5,86.7
		c0.1,2.2,1.2,5-0.9,6.6c-26.2,26.2-52.4,52.4-78.6,78.6c-28.1-3.7-56.3-6.9-84.5-9.4c-8.6-19-17.4-37.9-25.9-56.9
		c-0.5-1.1-1-2.7-2.6-2.4c-24.4,0-48.8,0-73.2,0c2.7-9,6.2-17.8,9.1-26.8c15.1-0.4,30.2,1.1,45.2,1.5c55.4,2.7,110.8,7.1,165.5,16.4
		c5.6,0.8,11.2,1.8,16.7,3.5c-10,13.4-20.8,26.1-31.2,39.2c-3.5,4.2-7,8.5-9.9,13.2c5.5-4.5,9.9-10.2,14.8-15.4c6.3-7,12.6-14,19-21
		c7.3-8,15.1-15.6,21.7-24.2c-5.5-1.7-11.2-2.5-16.9-3.3c-71.6-11.5-143.8-19-216.3-21.8c-7.3-0.5-14.6-0.7-21.9-0.2
		c-1.9,13-3.4,26-5.3,39c-5.1,0-10.1,0-15.2,0c-0.1-13.4,0.2-26.8,0-40.2c-22.6-0.2-45.2-0.2-67.8,0.1c0.6,13.4,1.4,26.7,2,40.1
		c-6.7,0-13.4,0-20.2,0c-0.8-11.1-1.6-22.2-2-33.4c-0.1-2.1-0.2-4.2-0.7-6.3c-3.2-0.5-6.4-0.3-9.6-0.2c-19.2,1-38.4,0-57.6,1.5
		c6.1,13,13.8,25.1,19.3,38.3c-23.1,0-46.1,0-69.2,0c-1.4-7.7-3.8-15.2-5.8-22.7c-2.9-9.9-1.2-20.4-1.8-30.5
		c-0.9-17.8,0.2-35.5-1-53.3c-1.7,15-2.1,30.2-3.5,45.2c-0.9,8.6-0.8,17.2-2.1,25.7c-17.8,1.9-35.7,2.9-53.5,4.7
		c-8.8,1-17.7,1.4-26.4,3.4c10.4,17,20.7,34.1,31.2,51.1c4.6,6.5,7.9,13.9,12.7,20.3c-0.9-3-2-5.9-3.3-8.7c-6.3-12.9-12.1-26-18-39
		c-2.6-5.2-5.3-10.3-6.9-15.9c17.1-0.9,34.1-2.7,51.2-3.9c2.3-0.1,4.8-0.4,7,0.4c1.6,2,2.6,4.3,3.6,6.6c2.4,5.6,5.2,11,7.6,16.6
		c-1.1,0.1-2.2,0.2-3.2,0.4c-8.3,18.9-17.2,37.6-25.7,56.5c-0.9,2.9-4.6,2-6.9,2.4c-26.1,2.2-52.2,4.6-78.2,8
		c-15.8-15.1-31.1-30.5-46.9-45.5c-11.4-10.9-22.3-22.2-33.9-32.8C28.5,400.9,43,316.7,60,233c3.6-17.2,7.2-34.4,11.2-51.5
		C71.6,180.5,71.5,178.5,73.1,178.5 M79.2,187.7c-4.6,19.8-8.8,39.6-13,59.4c96.4-16.7,194.1-27.1,292-28.2
		c0.2,11.1-0.5,22.2-0.4,33.4c-0.3,65.2-0.6,130.4-0.6,195.6c22.7-0.2,45.4,0.3,68.1,0.8c-0.9-40.1-2.2-80.2-3.2-120.3
		c-0.8-12-0.5-24-1.3-36c-0.6-24.1-1.8-48.2-2.5-72.4c83,3.2,165.6,13.1,247.5,27.2c-4.3-19.8-8.4-39.6-13-59.4
		c-103.7-19.4-209.2-30.8-314.8-28.5C251.1,161.2,164.6,171.7,79.2,187.7 M278.8,232.9c-1.3,25.6-3.1,51.1-4.4,76.8
		c0,4.4-1,9,0.8,13.1c7.5,20.7,15.5,41.3,23.4,61.9c-8.7-13.2-16.5-26.9-24.6-40.4c-20.5-35-40.4-70.4-58.9-106.5
		c-21.6,2-43.1,4.8-64.6,7.2c-2.6,13.9-4.1,27.9-6.2,41.9c-8,57.6-14.3,115.4-19.6,173.2c23.5-2.1,47.1-4.6,70.6-6.3
		c1.8-29.3,4-58.6,6.3-87.8c0.6-4.1-1.8-7.8-3-11.5c-7.1-19.4-14.2-38.8-20.5-58.4c1.6,2.2,2.9,4.7,4.2,7
		c15.1,27.9,31.2,55.2,47.4,82.6c12.6,21.5,25.6,42.8,39.5,63.5c22.7-0.3,45.5-1.6,68.2-1.6c0.3-15.6,1-31.3,1.1-46.9
		c1.3-1.5,1.8-3.4,1.6-5.3c-0.1-12-0.1-24,0-36c0.1-2.5-0.2-5-1.5-7.2c-0.1-32.3,1-64.5,1.1-96.8c0.4-8.2,0.6-16.4,0.6-24.6
		C319.8,231.1,299.3,231.8,278.8,232.9 M436.5,232.6c1.1,23.7,2.5,47.5,3.3,71.2c28.1,1.3,56.2,3.1,84.2,5.5c3.5,0.2,7.2,1,10.7,0.3
		c22.8-7,45.5-14.4,68.6-20.4c-15.3,8.6-31.2,16.2-46.6,24.6c-37.6,19.8-74.6,40.7-111.6,61.5c-1.1,0.6-2.8,1.2-2.4,2.9
		c0.7,10,0.7,20,1.1,30c0.9,13.6,0.5,27.3,1.5,40.9c8.9,0.9,17.8,0.5,26.7,1.3c67.2,3.4,134.2,9.7,201,18.2c9.5,1.1,19,2.8,28.5,3.5
		c-3-23.4-5.9-46.8-9.3-70.1c-32.4-4.5-64.8-9-97.3-12.6c-4-0.3-8.2-1.5-12.2-0.4c-25.4,7.9-50.6,16.6-75.9,25
		c19.5-10.6,39.3-20.7,59.1-30.9c35.2-18.2,71-35.2,107-51.8c2.5-1.2,5.2-2.1,7.4-3.9c-4-22.9-8.4-45.8-12.8-68.7
		c-12.7-1.8-25.3-4.2-38-6C565.6,242.9,501.1,235.9,436.5,232.6 M63.9,258.9C53.6,309.8,44.8,361,37.6,412.5
		c-2.6,19.9-5.7,39.8-7.5,59.8c24.2-2.8,48.3-6.4,72.6-9c1.1-7.6,1.5-15.3,2.4-23c6.5-64.1,15-128,25.1-191.7
		C108,251.5,86,255.4,63.9,258.9 M98.4,471.7c-13.6,2.5-27.3,4.2-40.8,6.9c-9.9,1.5-19.8,2.8-29.6,4.8
		c12.2,13.4,24.9,26.3,37.7,39.1c9.1,9.2,17.4,19.2,27.4,27.6c-1-1.7-2-3.3-3.2-4.8c-10.8-13.5-21.8-26.9-32.4-40.6
		c-4-5-8.6-9.5-11.6-15.2c12.6-2.6,25.4-4.4,38.2-6.3c3.9-0.5,7.8-1.8,11.7-1.3c4,2.8,6.4,7.3,9.6,10.9c9.6,11.4,19,23,28.5,34.5
		c3.6,4.4,6.7,9.3,11.2,12.9c-3-7.9-8.5-14.3-12.4-21.7c-6.8-10.8-13.2-22-20.2-32.7c-2.9-4.5-5-9.5-8.6-13.4
		C102.5,470.6,100.2,471.6,98.4,471.7z"/>
	<path class="st3" d="M368.5,467.7c12.5-0.5,25-0.1,37.5-0.3c3.2,0.1,6.6-0.1,9.7,1.2c2.2,9.1,2.6,18.6,3.6,28
		c-17.8,0-35.6,0-53.5,0C366.6,486.9,367.2,477.3,368.5,467.7z"/>
	<path class="st3" d="M288.6,469.5c12.9-0.1,25.8-0.5,38.6,0.3c2.2,8.8,3.7,17.8,5.6,26.7c-12.2,0-24.5,0-36.7,0
		C294.1,487.4,290.1,478.8,288.6,469.5z"/>
	<path class="st3" d="M180.2,584.2c11.6-25.1,23-50.3,34.8-75.3c100.3,0.1,200.6,0,300.9,0.1c4.5,7.6,7.5,16,11.5,23.9
		c8,17.1,16,34.2,23.7,51.5c-46-0.5-92.1-0.1-138.1-0.2c-71.7,0-143.3,0-215,0C192.1,584.3,186.1,584.6,180.2,584.2 M222.6,521.5
		c-7.7,17-16.1,33.7-23.6,50.9c111.1-0.1,222.3,0.1,333.4-0.1c-7.9-16.9-15.9-33.8-23.8-50.7C413.3,521.4,318,521.5,222.6,521.5z"/>
</g>
<g id="_x23_0a0a0aff">
	<path class="st4" d="M338.6,352c1.2,2.2,1.5,4.7,1.5,7.2c-0.1,12-0.1,24,0,36c0.1,1.9-0.4,3.8-1.6,5.3
		C338.5,384.3,338.5,368.2,338.6,352z"/>
	<path class="st4" d="M265.3,535c5.3,0,10.7,0,16,0c0,1.5,0,2.9,0,4.4c-3.8-0.1-7.7-0.1-11.5,0c0,1.8,0,3.6,0,5.5c3,0,6.1-0.1,9.1,0
		c0.9,1.1,0.5,2.7,0.9,4c-3.3,0.1-6.6,0.2-10,0.4c0,1.9,0,3.8,0,5.7c3.8,0.1,7.7,0,11.5,0c0,1.5,0,3,0,4.5c-5.3,0-10.6,0-16,0
		C265.1,551.3,265.2,543.1,265.3,535z"/>
	<path class="st4" d="M317.4,535.6c4-1.8,8.5-0.4,12.1,1.8c-0.8,1-1.6,2-2.5,3c-2.5-0.6-5.2-2.1-7.7-0.9c-2.2,0.5-2.5,3.8-0.5,4.8
		c2.5,0.8,5.2,0.7,7.6,1.7c4.9,2.1,4.6,10.3-0.1,12.4c-4.6,2.4-10.2,1.2-14.4-1.6c0.8-1.1,1.5-2.1,2.5-3.1c3.2,1,6.7,2.2,10,0.9
		c1.2-1.5,1.3-3.2-0.1-4.5c-3.1-1-6.6-0.7-9.3-2.7C311.3,544.1,312.6,537.1,317.4,535.6z"/>
	<path class="st4" d="M341.3,534.9c4.1,0.2,8.4-0.5,12.4,0.5c5.2,1.4,6.8,8.9,2.9,12.5c-2.6,3.1-7,2-10.5,2.3c0,3.1,0,6.2,0,9.3
		c-1.6,0-3.2,0-4.9,0C341.3,551.3,341.3,543.1,341.3,534.9 M346.1,539.3c0,2.2,0,4.5,0,6.7c2.1-0.1,4.2,0,6.2-0.4
		c2-1,1.2-3.4,1.5-5.2C351.4,539.3,348.7,539.2,346.1,539.3z"/>
	<path class="st4" d="M373.5,535.8c4.9-2.8,12,0.1,13,5.8c0.4,4,0.5,8.1-0.2,12c-1.7,6-10.1,8-14.5,3.8c-3.6-3-3-8.1-3-12.3
		C368.7,541.5,369.9,537.4,373.5,535.8 M376.3,539.4c-4.3,2.1-2.4,8-2.6,11.9c-0.3,4.3,6.4,5.3,7.8,1.6c0.9-3.4,0.7-7,0.2-10.4
		C381.5,540,378.5,538.3,376.3,539.4z"/>
	<path class="st4" d="M398.5,534.9c5.1,0.5,11.2-1.5,15.5,2.3c3.4,3.7,2,9.7-2.2,12.1c1.8,3.4,3.6,6.7,5.2,10.2
		c-1.7,0-3.3-0.1-5-0.2c-2.5-2.8-3.6-6.5-5.3-9.8c-1.1,0-2.2,0-3.3,0.1c0,3.3,0,6.5,0,9.8c-1.6,0-3.2,0-4.8,0.1
		C398.5,551.3,398.5,543.1,398.5,534.9 M403.3,539.4c0.2,2.1-0.5,4.5,0.5,6.5c2,0,4,0,6-0.5c1.9-1.5,2-4.5-0.2-5.7
		C407.5,539.3,405.4,539.4,403.3,539.4z"/>
	<path class="st4" d="M426.1,535c5.8-0.1,11.7-0.1,17.5,0c0,1.4,0,2.7,0,4.1c-2.1,0.1-4.3,0.2-6.4,0.3c0,6.7,0,13.4,0,20
		c-1.6,0-3.2,0-4.8-0.1c0.1-6.7,0-13.4,0-20.1c-2.1,0-4.2-0.1-6.2-0.1C426.1,537.8,426.1,536.4,426.1,535z"/>
	<path class="st4" d="M457.3,535.5c4-1.7,8.5-0.4,12.1,1.8c-0.8,1-1.6,2-2.5,2.9c-3.2-1-9-2.9-9.7,2c1.3,3,5,2.4,7.6,3.2
		c5.9,0.7,6.8,9.9,1.9,12.5c-4.7,2.7-11,1.9-15.1-1.6c1-1,2.1-2,3.1-2.9c3,1.8,6.5,1.8,9.8,1.3c0.2-1.6,1.3-3.6-0.4-4.7
		c-3.2-1.4-7.2-0.7-9.7-3.3C451.2,543.4,453,537.1,457.3,535.5z"/>
	<path class="st4" d="M291.8,547.5c3,0,6.1-0.1,9.1,0c2.2-0.3,1.3,2.8,1.7,4.1c-3.7,0-7.3,0-11,0
		C291.7,550.2,291.7,548.9,291.8,547.5z"/>
</g>
<g id="_x23_3a3a3aff">
	<path class="st0" d="M210.6,390c1.3,17.7,0.1,35.5,1,53.3c0.6,10.2-1,20.6,1.8,30.5c2.1,7.5,4.4,15,5.8,22.7c-3,0-6.1,0-9.1-0.1
		c-2.4-5.6-5.1-11-7.6-16.6c-1-2.3-2-4.7-3.6-6.6c-2.2-0.8-4.7-0.5-7-0.4c-17.1,1.2-34.1,3-51.2,3.9c1.6,5.6,4.3,10.7,6.9,15.9
		c5.9,13,11.8,26.1,18,39c1.3,2.8,2.4,5.8,3.3,8.7c-4.9-6.4-8.2-13.7-12.7-20.3c-10.5-17-20.8-34-31.2-51.1
		c8.7-1.9,17.6-2.4,26.4-3.4c17.8-1.9,35.7-2.9,53.5-4.7c1.4-8.5,1.2-17.1,2.1-25.7C208.5,420.2,208.9,405,210.6,390z"/>
	<path class="st0" d="M326.7,456.7c3.2-0.2,6.4-0.4,9.6,0.2c0.5,2,0.6,4.2,0.7,6.3c0.4,11.1,1.2,22.3,2,33.4c-2,0-4,0-6,0
		c-1.9-8.9-3.5-17.9-5.6-26.7c-12.9-0.8-25.8-0.4-38.6-0.3c1.5,9.3,5.5,17.8,7.6,27c-2.6,0-5.2,0-7.8,0
		c-5.5-13.2-13.2-25.3-19.3-38.3C288.3,456.7,307.5,457.7,326.7,456.7z"/>
	<path class="st0" d="M357.1,456.4c22.6-0.2,45.2-0.2,67.8-0.1c0.2,13.4-0.1,26.8,0,40.2c-1.9,0-3.8,0-5.7,0c-1-9.3-1.4-18.8-3.6-28
		c-3-1.3-6.4-1.1-9.7-1.2c-12.5,0.2-25-0.1-37.5,0.3c-1.3,9.6-1.9,19.2-2.7,28.8c-2.2,0-4.5,0-6.7,0
		C358.5,483.1,357.7,469.8,357.1,456.4z"/>
	<path class="st0" d="M445.5,457.6c7.3-0.4,14.6-0.2,21.9,0.2c72.5,2.8,144.7,10.3,216.3,21.8c5.7,0.7,11.4,1.6,16.9,3.3
		c-6.6,8.6-14.3,16.3-21.7,24.2c-6.3,7-12.6,14-19,21c-4.9,5.1-9.3,10.8-14.8,15.4c2.9-4.7,6.4-9,9.9-13.2
		c10.4-13.1,21.2-25.8,31.2-39.2c-5.4-1.7-11-2.7-16.7-3.5c-54.7-9.3-110.1-13.8-165.5-16.4c-15.1-0.4-30.2-1.9-45.2-1.5
		c-3,9-6.5,17.7-9.1,26.8c-3.2,0-6.3,0-9.5,0C442,483.5,443.6,470.5,445.5,457.6z"/>
	<path class="st0" d="M98.4,471.7c1.8-0.1,4.1-1,5.4,0.7c3.6,4,5.7,9,8.6,13.4c7,10.8,13.4,21.9,20.2,32.7
		c3.9,7.4,9.4,13.8,12.4,21.7c-4.4-3.7-7.5-8.5-11.2-12.9c-9.5-11.5-18.9-23.1-28.5-34.5c-3.2-3.7-5.6-8.1-9.6-10.9
		c-3.9-0.4-7.8,0.8-11.7,1.3c-12.8,1.9-25.6,3.7-38.2,6.3c3,5.7,7.6,10.2,11.6,15.2c10.7,13.7,21.6,27.1,32.4,40.6
		c1.2,1.5,2.2,3.2,3.2,4.8c-9.9-8.4-18.2-18.4-27.4-27.6c-12.8-12.8-25.6-25.7-37.7-39.1c9.8-2,19.7-3.3,29.6-4.8
		C71.1,475.9,84.8,474.2,98.4,471.7z"/>
</g>
</svg>
