<?xml version="1.0" encoding="utf-8"?>
<!-- Generator: Adobe Illustrator 21.0.0, SVG Export Plug-In . SVG Version: 6.00 Build 0)  -->
<svg version="1.1" id="Layer_1" xmlns="http://www.w3.org/2000/svg" xmlns:xlink="http://www.w3.org/1999/xlink" x="0px" y="0px" height="800px" width="800px"
	 viewBox="0 0 830.007 830.04" style="enable-background:new 0 0 830.007 830.04;" xml:space="preserve">
<style type="text/css">
	.st0{fill:#3CBCDC;stroke:#3CBCDC;stroke-width:0.0938;}
	.st1{fill:#082B44;stroke:#082B44;stroke-width:0.0938;}
	.st2{fill:#FFFFFF;stroke:#FFFFFF;stroke-width:0.0938;}
	.st3{fill:#6ECDDD;stroke:#6ECDDD;stroke-width:0.0938;}
	.st4{fill:#4E91BC;stroke:#4E91BC;stroke-width:0.0938;}
</style>
<path class="st0" d="M396.607,0.773c23.55-1.98,47.21,0.38,70.55,3.55c77.94,11.16,152.52,44.21,213.35,94.16
	c12.36,10.23,24.53,20.81,35.24,32.79c51.78,56.51,88.4,126.83,104.55,201.79c4.71,21.68,7.72,43.73,9.09,65.87
	c1.65,21.69-0.52,43.45-3.26,64.96c-12.07,89.69-53.39,174.96-115.7,240.52c-17.98,18.15-37.95,34.3-58.93,48.85
	c-69.12,47.84-152.38,74.93-236.43,76.73c-95.69-2.13-190.01-37.46-264.23-97.77c-13.69-11.22-27.14-22.86-38.84-36.19
	c-48.73-53.85-83.73-120.09-100.27-190.83c-7-29.24-10.82-59.21-11.68-89.25c1.55-80.5,26.24-160.35,70.27-227.74
	c15.27-23.51,32.81-45.56,52.32-65.71c47.48-45.95,105.5-81,168.38-101.39C325.177,9.973,360.747,3.153,396.607,0.773
	 M409.357,13.353c-75.02,0.84-149.61,23.47-212.44,64.46c-67.81,43.84-121.89,108.56-152.84,183.15
	c-22.51,53.84-32.79,112.67-30.3,170.95c2.03,49.27,13.18,98.18,32.91,143.39c29.32,67.61,78.01,126.5,138.42,168.62
	c63.87,44.75,140.93,70.59,218.95,72.54c63.64,1.89,127.71-11.71,185.02-39.48c54.11-26.05,102.22-64.47,139.7-111.4
	c41.16-51.31,69.48-112.89,81.28-177.63c14.05-76.11,5.74-156.3-24.31-227.68c-29.42-70.51-79.48-132.19-142.34-175.62
	C575.397,37.183,492.277,11.893,409.357,13.353z"/>
<path class="st1" d="M409.357,13.353c82.92-1.46,166.04,23.83,234.05,71.3c62.86,43.43,112.92,105.11,142.34,175.62
	c30.05,71.38,38.36,151.57,24.31,227.68c-11.8,64.74-40.12,126.32-81.28,177.63c-37.48,46.93-85.59,85.35-139.7,111.4
	c-57.31,27.77-121.38,41.37-185.02,39.48c-78.02-1.95-155.08-27.79-218.95-72.54c-60.41-42.12-109.1-101.01-138.42-168.62
	c-19.73-45.21-30.88-94.12-32.91-143.39c-2.49-58.28,7.79-117.11,30.3-170.95c30.95-74.59,85.03-139.31,152.84-183.15
	C259.747,36.823,334.337,14.193,409.357,13.353 M235.637,95.723c-65.17,36.54-118.62,93.53-150.82,160.95
	c-29.23,60.39-40.72,128.94-34.04,195.62c1.34,12.36,3.16,24.68,5.72,36.85c9.96,49.13,30.39,96.08,59.39,136.97
	c41.38,58.73,100.35,104.88,167.45,130.64c75.33,29.16,160.37,32.25,237.67,8.84c61.17-18.34,117.21-53.25,160.87-99.83
	c44.27-46.92,75.77-105.76,90.09-168.67c10.36-45.18,11.89-92.31,4.98-138.12c-6.87-44.9-22.23-88.49-45.09-127.74
	c-38.23-66.09-97.66-119.64-167.41-150.71c-44.99-20.16-94.12-30.96-143.4-31.66C356.567,47.723,291.807,63.973,235.637,95.723z"/>
<path class="st2" d="M235.637,95.723c56.17-31.75,120.93-48,185.41-46.86c49.28,0.7,98.41,11.5,143.4,31.66
	c69.75,31.07,129.18,84.62,167.41,150.71c22.86,39.25,38.22,82.84,45.09,127.74c6.91,45.81,5.38,92.94-4.98,138.12
	c-14.32,62.91-45.82,121.75-90.09,168.67c-43.66,46.58-99.7,81.49-160.87,99.83c-77.3,23.41-162.34,20.32-237.67-8.84
	c-67.1-25.76-126.07-71.91-167.45-130.64c-29-40.89-49.43-87.84-59.39-136.97c36.86-18.76,72.4-40.06,106.92-62.83
	c39.18-25.88,77.09-53.72,113.29-83.63c36.14-29.99,70.83-61.95,101.54-97.53c18.71-21.86,36.09-45.13,49.04-70.91
	c7.55-15.8,14.19-32.17,18.14-49.27c2.44-10.76,3.69-22.01,1.77-32.95c-1.61-8.85-6.05-17.39-13.27-22.92
	c-9.58-7.52-21.98-10.05-33.86-10.81c-16.48-0.89-33.03,1.17-49.16,4.48c-30.93,6.99-60.9,18.31-88.85,33.29
	c-25.09,13.61-48.85,30.7-66.73,53.2c-11.71,14.7-20.4,32.01-23.81,50.57c-4.6,25.69-3.83,52.57,3.93,77.58
	c7.35,23.54,20.61,45.48,39.26,61.77c-43.48,35.15-90.17,66.07-137.23,96.15c-8.82,5.77-18.02,10.98-26.7,16.96
	c-6.68-66.68,4.81-135.23,34.04-195.62C117.017,189.253,170.467,132.263,235.637,95.723 M562.697,104.563
	c15.41,23.04,24.18,50.57,23.88,78.36c-0.32,35.91-13.6,70.4-31.54,101.05c-21.48,36.51-49.51,68.74-79.69,98.29
	c-27.52,26.69-57.08,51.22-87.79,74.14c-66.13,49.15-137.28,91.23-210.67,128.55c31.75,18.19,66.12,31.49,101.15,41.87
	c47.68,13.89,97.35,21.1,147.03,20.62c47.46-0.88,95.28-7.74,139.81-24.68c35.92-13.74,69.48-35.03,94.62-64.41
	c25.53-29.42,41.75-66.25,48.68-104.44c8.13-43.37,4.72-88.26-6.1-130.86c-4.77-20.09-11.45-39.65-16.6-59.64
	c-1.97-9.11-4.42-18.73-1.79-27.97c1.18-4.34,4.79-8.35,9.54-8.43c6,0.2,10.89,4.37,14.63,8.7c0.14-8.48-4.5-16.34-10.26-22.27
	c-10.23-10.1-24.29-14.98-38.08-17.89c-13.47-20.96-29.6-40.23-47.78-57.26C597.127,124.803,580.907,112.743,562.697,104.563
	 M480.307,108.713c-1.52,8.45-2.91,16.95-5.27,25.22c-9.69,35.17-28,67.33-49.28,96.72c-25.15,34.63-54.85,65.71-86.16,94.8
	c-57.76,53.11-121.43,99.47-187.7,141.34c-11.99,7.68-24.39,14.7-36.45,22.25c20.16-7.61,39.89-16.36,59.53-25.22
	c65.52-30.14,128.92-66.22,184.04-113.04c25.66-21.92,49.38-46.24,69.35-73.49c22.07-30.08,39.58-63.95,48.26-100.38
	C481.747,154.653,484.227,131.353,480.307,108.713 M163.787,637.193c6.24,9.84,14.06,18.6,22.1,27
	c26.73,27.04,60.01,46.97,95.3,60.72c42.57,16.54,88.28,24.2,133.86,24.83c59.03-0.8,118.67-13.48,170.73-41.96
	c31.39-17.36,60.33-40.54,80.54-70.46c-37.51,28.96-81.02,49.59-126.21,63.44c-90.17,27.5-189.34,24.2-277.46-9.31
	C227.447,678.013,193.507,660.494,163.787,637.193z"/>
<path class="st0" d="M350.907,62.773c16.13-3.31,32.68-5.37,49.16-4.48c11.88,0.76,24.28,3.29,33.86,10.81
	c7.22,5.53,11.66,14.07,13.27,22.92c1.92,10.94,0.67,22.19-1.77,32.95c-3.95,17.1-10.59,33.47-18.14,49.27
	c-12.95,25.78-30.33,49.05-49.04,70.91c-30.71,35.58-65.4,67.54-101.54,97.53c-36.2,29.91-74.11,57.75-113.29,83.63
	c-34.52,22.77-70.06,44.07-106.92,62.83c-2.56-12.17-4.38-24.49-5.72-36.85c8.68-5.98,17.88-11.19,26.7-16.96
	c47.06-30.08,93.75-61,137.23-96.15c-18.65-16.29-31.91-38.23-39.26-61.77c-7.76-25.01-8.53-51.89-3.93-77.58
	c3.41-18.56,12.1-35.87,23.81-50.57c17.88-22.5,41.64-39.59,66.73-53.2C290.007,81.083,319.977,69.763,350.907,62.773z"/>
<path class="st1" d="M562.697,104.563c18.21,8.18,34.43,20.24,49.04,33.73c18.18,17.03,34.31,36.3,47.78,57.26
	c13.79,2.91,27.85,7.79,38.08,17.89c5.76,5.93,10.4,13.79,10.26,22.27c-3.74-4.33-8.63-8.5-14.63-8.7
	c-4.75,0.08-8.36,4.09-9.54,8.43c-2.63,9.24-0.18,18.86,1.79,27.97c5.15,19.99,11.83,39.55,16.6,59.64
	c10.82,42.6,14.23,87.49,6.1,130.86c-6.93,38.19-23.15,75.02-48.68,104.44c-25.14,29.38-58.7,50.67-94.62,64.41
	c-44.53,16.94-92.35,23.8-139.81,24.68c-49.68,0.48-99.35-6.73-147.03-20.62c-35.03-10.38-69.4-23.68-101.15-41.87
	c73.39-37.32,144.54-79.4,210.67-128.55c30.71-22.92,60.27-47.45,87.79-74.14c30.18-29.55,58.21-61.78,79.69-98.29
	c17.94-30.65,31.22-65.14,31.54-101.05C586.877,155.133,578.107,127.603,562.697,104.563 M597.477,285.363
	c-6.87,16.13-16.26,31-25.07,46.08c-19.36,28.19-40.23,55.75-65.92,78.54c8.5,26.02,6.8,54.89-3.13,80.27
	c-6.48,16.33-16.8,31.4-30.82,42.15c-8.56,6.34-19.83,10.49-30.46,7.57c-9.26-2.3-16.26-10.09-19.46-18.84
	c-4.79-12.81-3.59-26.9-0.79-40.02c-28.14,17.93-56.67,35.25-85.41,52.21c-14.13,8.46-28.65,16.28-42.74,24.79
	c-16.25,8.34-32.16,17.38-48.58,25.38c0.06,0.22,0.18,0.64,0.24,0.85c6.49,2.54,13.23,4.44,19.91,6.46
	c16.92,4.7,34.02,9.08,51.42,11.55c1.34,0.51,2.79,0.69,4.2,0.97c51.22,8.51,103.8,9.74,155.19,1.87
	c36.07-5.7,71.88-15.17,104.71-31.43c29.26-14.6,56-36.14,72.02-65.08c10.45-18.55,16.2-39.51,18.1-60.65
	c2.19-23.73-0.15-47.62-4.28-71.01c-2.01-10.64-4.06-21.37-7.63-31.59c-2.88-11.44-7.39-22.43-12.46-33.06
	c-5.94-11.7-12.98-23.28-23.27-31.66c-4.54-3.49-10.27-6.7-16.19-5.38C602.157,276.413,599.167,280.973,597.477,285.363
	 M485.537,423.603c-7.6,2.84-11.43,10.98-13.51,18.3c-2.35,9.8-2.47,20.82,2.43,29.9c2.04,3.92,5.98,7.27,10.6,7.16
	c5.13-0.32,9.18-4.18,11.76-8.33c5.38-8.72,6.87-19.43,5.61-29.48c-0.95-5.87-2.97-12.1-7.82-15.89
	C492.137,423.143,488.587,422.713,485.537,423.603 M441.427,484.273c-4.77,3.52-5.79,10.12-5.63,15.67
	c0.33,5.33,1.85,11.62,6.83,14.47c3.43,1.83,7.32-0.67,8.87-3.82c3.65-7.15,3.4-16.32-0.73-23.22
	C448.997,484.203,444.737,482.083,441.427,484.273z"/>
<path class="st3" d="M480.307,108.713c3.92,22.64,1.44,45.94-3.68,68.2c-8.68,36.43-26.19,70.3-48.26,100.38
	c-19.97,27.25-43.69,51.57-69.35,73.49c-55.12,46.82-118.52,82.9-184.04,113.04c-19.64,8.86-39.37,17.61-59.53,25.22
	c12.06-7.55,24.46-14.57,36.45-22.25c66.27-41.87,129.94-88.23,187.7-141.34c31.31-29.09,61.01-60.17,86.16-94.8
	c21.28-29.39,39.59-61.55,49.28-96.72C477.397,125.663,478.787,117.163,480.307,108.713z"/>
<path class="st4" d="M597.477,285.363c1.69-4.39,4.68-8.95,9.58-10.03c5.92-1.32,11.65,1.89,16.19,5.38
	c10.29,8.38,17.33,19.96,23.27,31.66c5.07,10.63,9.58,21.62,12.46,33.06c-8.84-10.99-19.07-21.47-32.25-27.12
	c-11.37-5.16-25.08-5.77-36.36-0.01c-6.89,3.05-12.16,8.52-17.96,13.14C581.217,316.363,590.607,301.493,597.477,285.363z"/>
<path class="st0" d="M590.367,318.303c11.28-5.76,24.99-5.15,36.36,0.01c13.18,5.65,23.41,16.13,32.25,27.12
	c3.57,10.22,5.62,20.95,7.63,31.59c4.13,23.39,6.47,47.28,4.28,71.01c-1.9,21.14-7.65,42.1-18.1,60.65
	c-16.02,28.94-42.76,50.48-72.02,65.08c-32.83,16.26-68.64,25.73-104.71,31.43c-51.39,7.87-103.97,6.64-155.19-1.87
	c-1.41-0.28-2.86-0.46-4.2-0.97c-9.33-5.06-19.6-9.06-26.91-17.08c-3.46-3.69-6.26-8.72-5.28-13.93c0.98-5.56,5.48-9.38,9.2-13.23
	c14.09-8.51,28.61-16.33,42.74-24.79c28.74-16.96,57.27-34.28,85.41-52.21c-2.8,13.12-4,27.21,0.79,40.02
	c3.2,8.75,10.2,16.54,19.46,18.84c10.63,2.92,21.9-1.23,30.46-7.57c14.02-10.75,24.34-25.82,30.82-42.15
	c9.93-25.38,11.63-54.25,3.13-80.27c25.69-22.79,46.56-50.35,65.92-78.54C578.207,326.823,583.477,321.353,590.367,318.303z"/>
<path class="st2" d="M485.537,423.603c3.05-0.89,6.6-0.46,9.07,1.66c4.85,3.79,6.87,10.02,7.82,15.89
	c1.26,10.05-0.23,20.76-5.61,29.48c-2.58,4.15-6.63,8.01-11.76,8.33c-4.62,0.11-8.56-3.24-10.6-7.16c-4.9-9.08-4.78-20.1-2.43-29.9
	C474.107,434.583,477.937,426.443,485.537,423.603z"/>
<path class="st2" d="M441.427,484.273c3.31-2.19,7.57-0.07,9.34,3.1c4.13,6.9,4.38,16.07,0.73,23.22c-1.55,3.15-5.44,5.65-8.87,3.82
	c-4.98-2.85-6.5-9.14-6.83-14.47C435.637,494.393,436.657,487.793,441.427,484.273z"/>
<path class="st4" d="M245.097,583.494c16.42-8,32.33-17.04,48.58-25.38c-3.72,3.85-8.22,7.67-9.2,13.23
	c-0.98,5.21,1.82,10.24,5.28,13.93c7.31,8.02,17.58,12.02,26.91,17.08c-17.4-2.47-34.5-6.85-51.42-11.55
	c-6.68-2.02-13.42-3.92-19.91-6.46C245.277,584.133,245.157,583.714,245.097,583.494z"/>
<path class="st1" d="M163.787,637.193c29.72,23.3,63.66,40.82,98.86,54.26c88.12,33.51,187.29,36.81,277.46,9.31
	c45.19-13.85,88.7-34.48,126.21-63.44c-20.21,29.92-49.15,53.1-80.54,70.46c-52.06,28.48-111.7,41.16-170.73,41.96
	c-45.58-0.63-91.29-8.29-133.86-24.83c-35.29-13.75-68.57-33.68-95.3-60.72C177.847,655.794,170.027,647.034,163.787,637.193z"/>
</svg>
