<?xml version="1.0" encoding="utf-8"?>
<!-- Generator: Adobe Illustrator 21.0.0, SVG Export Plug-In . SVG Version: 6.00 Build 0)  -->
<svg version="1.1" id="Layer_1" xmlns="http://www.w3.org/2000/svg" xmlns:xlink="http://www.w3.org/1999/xlink" x="0px" y="0px"
	 viewBox="0 0 980.34 980.34" style="enable-background:new 0 0 980.34 980.34;" xml:space="preserve">
<style type="text/css">
	.st0{fill:#96C11F;stroke:#96C11F;stroke-width:0.0938;}
	.st1{fill:#AFAFAF;stroke:#FFFFFF;stroke-width:0.0938;}
</style>
<path class="st0" d="M266.205,55.192c70.4-37.2,150.3-56.2,229.9-55.1c87.1,0.8,173.8,26,247.7,72.2c62.4,38.7,115.8,92,154.7,154.3
	c35.2,56.2,58.4,119.8,67.8,185.5c8.6,60.4,5.8,122.3-8.5,181.6c-48.2,15.7-95.7,33.8-141.5,55.5c-51.1,24.3-100.4,52.9-144.3,88.7
	c-23.1,19.1-45.1,40-62.5,64.5c-2.9,4.5-6.8,8.6-7.8,14c3.3-1.8,5.6-5,8-7.8c37.5-46,87.2-80.3,139.6-107.3
	c62.7-32,130-54.1,198.1-71c-6.9,23.2-16.2,45.7-27.7,67.1c-24.8,0.5-49.6,3.6-74,8c-30.7,5.6-61,13.7-90.4,24
	c-40.1,14.2-79.9,31.1-114,57c-3.1,2.4-6.6,4.6-8.4,8.2c2.7,0.2,5-1.2,7.1-2.6c20.3-14.2,43.4-23.9,66.5-32.5
	c16-5.8,32.1-11.5,48.7-15.2c27.9-6.3,56.4-9.5,84.9-11.8c21-1.6,42.1-2.6,63.2-2.9c-14.3,22-29.3,43.5-45.1,64.4
	c-56.9-15.6-117.5-20.4-175.5-8c-15.6,3.4-30.9,8-45.5,14.3c-2.7,1.3-5.8,2.5-7.4,5.2c4.9,0.6,9.5-1.5,14.3-2.2
	c52.1-10,106.5-3.6,156.3,13.8c38.2,13.2,74.6,31.1,109.3,51.9c12,7.2,23.8,14.7,35.2,22.9c-56.4,13.2-113.5,24.2-171.3,29.2
	c-24.3-30-52.5-57.4-85.9-77.2c-22.1-13-46.7-22.8-72.4-24.9c-7.4-1-13.7,4.2-18.1,9.5c-1.5,3.1,2.2,5.3,4.5,6.5
	c18.1,8.8,34.8,20.3,51.5,31.5c7.6,4.9,14.1,11.1,20,17.8c14.8,17.2,26.6,36.8,36.8,57c-54.4-1.1-108.9-3.6-162.8-11.4
	c-0.5-3.1-0.7-6.4-2.2-9.2c-0.3-0.1-1-0.3-1.3-0.4c-2,1.9-3.1,4.5-4.2,7c-7.1,16.8-14.1,33.7-18.1,51.6c-9.8,0.5-19.6,1-29.4,1.4
	c1.1-33.4,3.1-66.8,8-99.8c2.2-13.2,4.4-26.6,9.6-39c1.2-2.1,1.8-5.3,4.6-5.7c17.3-4.5,35.3-5.5,53.1-7.1c4.6-0.5,9.3-0.3,13.9-1.5
	c3.9-1.1,6.3-4.6,8.3-7.9c8.3-13.8,17.8-26.8,27.2-39.9c32.4-45.9,73.3-85.1,117-120c48.2-38.2,100.2-71.5,154.3-100.7
	c15.5-8.3,31.2-16.4,47.3-23.9c8.7-71.9-0.1-145.9-26-213.5c-28.1-74-76.5-140.2-138.3-189.7c-67.9-54.8-152.3-89-239.3-96.7
	c-75-6.9-151.7,5.2-220.7,35.5c-72.6,31.7-136.4,83.1-183,147.1c-47.6,64.7-76.9,142.3-84,222.1c-2.9,31.6-2.4,63.5,1.4,95.1
	c35.7,16.7,70.2,35.9,103.8,56.5c58.3,36,114,76.9,162.2,125.8c13.6,13.8,26.6,28.3,38.6,43.6c14.5,19.3,28.9,38.7,41.5,59.3
	c2.1,3.7,5.4,7.3,9.9,7.7c20.6,2,41.5,2.9,61.8,7.3c2.2,0.7,5.2,0.6,6.2,3.2c5.9,11.8,8.2,25,10.5,37.9c5.4,34.5,7.5,69.3,8.7,104.2
	c-9.8-0.5-19.6-1-29.4-1.4c-4-17.8-11-34.8-18.1-51.5c-1.2-2.7-2.4-5.7-5-7.5c-2,3-2.3,6.6-2.8,10.1
	c-53.9,7.9-108.4,10.4-162.8,11.4c7.9-15.8,16.9-31.1,27.4-45.3c8.3-11.2,17.6-21.9,29.4-29.5c16.5-11.1,33-22.5,50.9-31.2
	c2.3-1.3,5.8-2.9,5.4-6c-1.4-3.2-4.7-5.1-7.3-7.3c-4.2-3.5-10-3.4-15.2-2.7c-28.4,3.5-55.2,15.5-79,31.2
	c-28.9,19.1-53.7,43.8-75.4,70.6c-57.8-5-114.9-16-171.3-29.2c29.4-20.7,60.8-38.6,93.3-53.9c34.5-16,70.6-29.5,108.3-35.5
	c33.4-5.4,67.8-5.6,101,1.1c4.1,0.7,8.2,2.4,12.5,1.9c-2.2-3.4-6.2-4.5-9.7-6.1c-35.9-14.9-75.1-20.5-113.8-20.4
	c-35.4,0.2-70.8,5.7-104.9,15.1c-15.8-20.9-30.8-42.4-45.1-64.4c45.2,0.8,90.6,3.8,135.2,12c23.7,4.2,46.5,12.1,69,20.7
	c20.3,8,40.5,16.8,58.5,29.4c2.3,1.6,4.8,3.2,7.8,3.1c-1.8-3.9-5.7-6.1-9-8.7c-27.3-20.7-58.4-35.5-90.2-47.9
	c-37-14.4-75.2-25.7-114.3-32.7c-24.2-4.3-48.7-7.4-73.4-7.9c-11.4-21.4-20.8-43.8-27.6-67c42.7,10.5,85,23.2,126.1,38.9
	c36.9,14.2,72.8,30.9,106.7,51.3c39.3,23.6,75.9,52.4,104.9,88.1c2.5,2.8,4.7,6,8,7.8c-0.5-3-2.1-5.6-3.7-8
	c-20.4-30.6-47.8-55.9-76.6-78.5c-56.3-43.4-120-76.3-185.6-103.3c-29.6-12.2-59.8-23-90.2-32.9c-10.5-43.8-14.9-88.5-13-133.1
	c3.2-82.6,28.3-164.3,72.2-234.4C126.605,154.492,191.005,94.692,266.205,55.192 M450.605,864.992c-2.3,3.5-3.9,7.7-3.7,12
	c1.4,2.3,4.4,3.3,5.4,6c11.9,28.5,19.2,58.6,23.8,89c0,1.6,1.5,2.5,3,2.2c-4.4-33.2-11.2-66.4-23.3-97.8
	C454.405,872.492,453.105,868.392,450.605,864.992 M529.605,864.992c-3,4.6-4.5,10-6.5,15.1c-6.9,18.2-11.8,37.2-15.6,56.3
	c-2.3,12.4-4.9,24.9-6.1,37.5c1.9,1.3,3.1-1.3,3.1-2.8c4.6-30.1,11.9-60,23.6-88.1c1-2.7,4-3.6,5.4-6
	C533.505,872.692,532.205,868.392,529.605,864.992z"/>
<path class="st1" d="M252.305,135.192c67.9-47,150.1-73,232.7-73.8c75.3-1.1,150.9,18.6,215.9,56.6
	c61.6,35.8,113.8,87.5,150.2,148.7c13.2,22.2,24.3,45.7,33.2,69.9c-34.3,0-68.5,0-102.8,0c-27.1-54.1-69.6-100.3-121.2-131.9
	c-30.3-18.6-63.6-32.2-98.3-39.9c-59.5-13.4-122.8-9.8-180.3,10.6c-58.6,20.5-110.8,58.4-148.9,107.4
	c-35.4,45.4-58.4,100.3-65.7,157.3c246.9,0,493.8,0,740.7,0c2.9,31.1,2.5,62.4-1.4,93.4c-57.2,27.7-111.8,60.8-162.2,99.6
	c-47.7,36.8-91.8,78.5-129.6,125.4c-13.4,16.8-26.3,34.1-37.2,52.7c-33.8,9.2-69.2,12.8-104.2,11.5c-22.7-0.9-45.4-4.2-67.3-10.3
	c-16.9-29.4-38-56.3-60.6-81.5c21.3,6.9,43.6,9.7,65.7,12c39.2,3.7,78.6,3.7,117.9,2c41.3-61.3,92.7-115.7,151.3-160.8
	c29.3-22.4,60.2-42.9,93.3-59.3c-222.8,0-689.8,0.3-700.5,0.6c-7.4-68.7,2.3-139.3,28.6-203.3
	C132.205,246.992,185.405,181.192,252.305,135.192z"/>
</svg>
