<?xml version="1.0" encoding="utf-8"?>
<!-- Generator: Adobe Illustrator 24.0.3, SVG Export Plug-In . SVG Version: 6.00 Build 0)  -->
<svg version="1.1" id="Layer_1" xmlns="http://www.w3.org/2000/svg" xmlns:xlink="http://www.w3.org/1999/xlink" x="0px" y="0px"
	 viewBox="0 0 800 800" style="enable-background:new 0 0 800 800;" xml:space="preserve">
<style type="text/css">
	.st0{fill:#FFFFFF;}
	.st1{fill:#FFEF00;}
</style>
<g>
	<g>
		<path d="M776.99,103.32c13.57,11.2,15.4,27.7,15.54,41.05c0.04,3.58,0.03,6.58,0,9.61c-0.08,14.71,0,55.22,0,55.22v64.64v42.18
			c0,0,0.1,48.98,0,66.78c0.02,8.41,0.06,16.7,0.01,26.84c-0.08,14.42-2.32,28.93-8.8,40.75c-8.22,15.36-23.66,25.3-39.73,30.92
			C517.09,558.52,310.19,630.17,83.27,707.39c-10.6,3.96-21.13,6.39-33.65,4.02c-10.01-2.12-19.07-6.83-25.36-14.35
			C10.21,681.39,8.06,666.82,7.7,650.51c-0.05-11.74,0-44.83,0-44.83l0.03-53.57L7.7,449.1c0,0,0.03-26.76,0.03-40.34
			c-0.19-18.01,0.25-42.7,10.67-57.58c10.22-14.84,27.81-24.72,44.68-30.61c228.63-74.73,387.98-135.68,616.62-210.38
			c20.13-6.29,16.85-5.27,27.9-8.98C733.88,92.38,752.1,83.07,776.99,103.32z"/>
		<path class="st0" d="M59.47,718c-3.46,0-7.08-0.31-10.9-1.03c-12-2.54-21.87-8.17-28.65-16.28
			C4.06,683.01,2.39,666.26,2.04,650.63c-0.05-11.85,0-44.96,0-44.96l0.03-53.56L2.04,449.1c0-0.01,0.03-26.76,0.03-40.34
			c-0.24-22.54,1.01-45.55,11.69-60.83c12.1-17.56,32.48-27.48,47.45-32.71c114.19-37.32,212.65-71.75,307.86-105.04
			c95.53-33.41,194.32-67.95,308.87-105.37c17.14-5.36,17.27-5.4,23.74-7.58l4.11-1.39c2.43-0.82,4.79-1.64,7.1-2.44
			c22.89-7.96,42.66-14.83,67.67,5.52l0.03,0.03c15.31,12.63,17.45,30.87,17.6,45.35c0.04,3.62,0.03,6.65,0,9.72
			c-0.08,14.5,0,54.75,0,55.16v106.83c0,0.48,0.1,49.19,0,66.82l0.01,5.15c0.02,6.72,0.04,13.62-0.01,21.69
			c-0.1,17.49-3.29,32.11-9.49,43.44c-10.1,18.86-28.87,28.66-42.83,33.55c-113.79,38.72-224.34,76.65-331.24,113.34
			c-106.37,36.5-216.37,74.25-329.55,112.76C77.9,715.44,69.4,718,59.47,718z M746.56,96.88c-9.18,0-18.57,3.26-29.96,7.22
			c-2.34,0.81-4.74,1.65-7.21,2.48l-4.1,1.38c-6.47,2.18-6.72,2.27-23.91,7.64c-114.37,37.36-213.1,71.89-308.57,105.27
			c-95.27,33.31-193.78,67.76-307.97,105.08c-13.27,4.63-31.39,13.36-41.77,28.44c-10.1,14.44-9.81,41.37-9.67,54.31
			c0,13.64-0.03,40.4-0.03,40.4l0.03,103.01l-0.03,53.57c0,0.01-0.05,33.07,0,44.8c0.37,16.81,2.96,29.24,15.12,42.79
			c5.27,6.3,12.94,10.6,22.32,12.59c11.88,2.24,21.68-0.49,30.49-3.78c113.32-38.57,223.31-76.31,329.68-112.81
			c106.91-36.69,217.46-74.62,331.22-113.33c12.01-4.21,28.16-12.54,36.57-28.24c5.32-9.71,8.04-22.51,8.13-38.11
			c0.04-8.04,0.03-14.91,0.01-21.6l-0.01-5.2c0.1-17.63,0-66.29,0-66.78V209.19c0-0.39-0.08-40.68,0-55.25
			c0.03-3.01,0.04-5.98,0-9.52c-0.13-12.77-1.84-27.12-13.47-36.73C763.66,99.77,755.2,96.88,746.56,96.88z"/>
	</g>
	<g>
		<path class="st1" d="M636.84,173.87c37.78-12.93,71.15-24.16,108.94-37.03c1.56-0.53,2.12,0.06,2.12,1.23
			c-0.01,1.53,0,7.02,0,7.02v24.52v36.38v66.64c0,0,0.1,51.81,0,73.63c-0.18,38.51,0,65.58,0,65.58s0.09,17.18,0.06,25.76
			c0,0.6-0.53,0.98-1.05,1.11c-36.15,12.23-72.3,24.47-108.46,36.69c-0.78,0.44-1.73-0.21-1.61-1.09
			c-0.16-19.66-0.02-58.97-0.02-58.97v-98.67V187.79C636.82,187.79,636.86,177.58,636.84,173.87z"/>
	</g>
	<g>
		<path class="st1" d="M617.98,179.47c1.4-0.36,3.28,0.68,3.28,2.09c0.09,10.89,0,35.32,0,35.32v197.17c0,0-0.37,19.9,0,34.19
			c0.11,4.36,0.1,8.73,0.12,12.08c0.17,1.09-1.38,1.6-1.86,0.61c-36.67-47.19-73.35-94.38-110.01-141.58
			c-0.59-0.88-1.62-1.6-1.65-2.74c-0.02-33.12-0.09-65.94-0.03-99.05c0-0.48,0.28-0.94,0.63-1.1
			C544.82,204.14,581.65,191.78,617.98,179.47z"/>
	</g>
	<g>
		<path class="st1" d="M385.4,258.82c16.23-5.41,29.25-9.79,45.48-15.2c1.26-0.54,1.85,0.97,2.53,1.73
			c60.64,78.06,121.29,156.12,181.95,234.17c0.61,0.92,1.82,1.76,1.38,3c-36.56,12.54-73.19,24.9-109.76,37.4
			c-0.54,0.23-1.18,0.21-1.5-0.34c-10.66-14.07-21.25-28.21-31.93-42.27c-29.4,9.98-58.81,19.96-88.22,29.93
			c-0.78,0.41-1.64-0.32-1.49-1.14c-0.18-18.89,0.09-37.27-0.08-56.16c0.07-1.5,0.31-2,2.06-2.6c17.83-6.24,33.77-11.72,51.61-17.95
			c-18.25-24.27-34.17-45.59-52.44-69.84c-1.4-2.12-1.15-2.1-1.15-2.57c-0.02-1.38,0-5.98,0-5.98v-12.01v-30.84
			c0,0-0.04-9.38,0-14.02c0.07-9.52-0.06-16.87,0-26.49c0.01-1.75-0.02-4.46,0.01-6.36C383.83,259.1,384.25,259.19,385.4,258.82z"/>
	</g>
	<g>
		<path class="st1" d="M365.35,265.98c2.72-0.91,4.55,0.41,4.55,2.41c0,10.23,0,25.62,0,25.62s-0.1,23.15,0,56.24
			c0.04,14.29-0.04,48.5-0.04,48.5s0.01,10.78,0.04,16.19c0.11,21.4,0.02,65.45,0.02,65.45s-0.11,18.52-0.02,27.48
			c0.16,14.88,0.05,27.89,0,40.58c0.01,1.06-1.55,1.23-1.97,0.34c-35.89-45.86-72.24-92.04-108.05-137.97c-0.02-2.65,0-8.87,0-8.87
			l0.03-31.7c0,0-0.04-22.27-0.03-33.1c0-5.51,0.04-19.65,0.04-19.65l0.01-4.37c0,0-0.02-5.42-0.05-7.82c0-3.16,0.19-3.47,1.39-4.12
			C296.92,289.1,329.69,278.05,365.35,265.98z"/>
	</g>
	<g>
		<path class="st1" d="M164.41,334.74c0.75-0.35,1.72,0.27,1.59,1.19c-0.42,99.29,0.37,196.54,0,295.84c-0.04,1.3,0.6,4.51-1.9,5.2
			c-36.39,12.33-71.82,24.29-108.21,36.62c-2.56,0.85-2.55-0.98-2.56-1.89c-0.05-7.06,0-21.05,0-21.05V437.5l0.04-52.22
			c0,0-0.02-7.42-0.04-10.28c0-2.18,0.76-2.76,2.17-3.38C93.09,358.89,126.84,347.45,164.41,334.74z"/>
	</g>
	<g>
		<path class="st1" d="M180.94,337.06c0.55-0.34,1.27-0.16,1.62,0.4c60.06,76.63,120.79,153.28,180.85,229.9
			c0.73,0.6,0.45,1.76-0.5,1.9c-36.27,12.3-72.56,24.58-108.84,36.85c-1.16,0.57-1.77-0.8-2.37-1.52
			c-23.29-30.35-46.59-60.7-69.89-91.05c-0.48-0.68-1.24-1.28-1.2-2.17c0.18-57.78-0.13-115.54,0-173.31
			C180.6,337.7,180.69,337.34,180.94,337.06z"/>
	</g>
</g>
</svg>
