<svg xmlns="http://www.w3.org/2000/svg" xmlns:xlink="http://www.w3.org/1999/xlink" id="Layer_1" x="0" y="0" version="1.1" viewBox="-37 151 488 492" xml:space="preserve" style="enable-background:new -37 151 488 492"><style type="text/css">.st0{fill:#6d7486}.st1{fill:#e2e4ed}.st2{fill:#b0b5ca}.st3{fill:#50dd5a}.st4{fill:#fe8700}.st5{fill:#f43b3b}.st6{fill:#ffd8b7}.st7{fill:#284268}</style><path d="M445,178.6v66.8H-31v-66.8c0-11.9,9.7-21.6,21.6-21.6c0,0,0,0,0,0h432.7C435.3,157,445,166.7,445,178.6	C445,178.6,445,178.6,445,178.6z" class="st0"/><path d="M-31,245.4v291.9c0,12,9.7,21.6,21.6,21.6h432.7c12,0,21.6-9.7,21.6-21.6V245.4L-31,245.4z" class="st1"/><path d="M20.6,157h-30c-11.9,0-21.6,9.7-21.6,21.6c0,0,0,0,0,0v66.8h30v-66.8C-1,166.7,8.7,157,20.6,157	C20.6,157,20.6,157,20.6,157z" class="st2"/><path d="M-1,537.2V245.4h-30v291.8c0,12,9.7,21.6,21.6,21.6h30C8.7,558.9-1,549.2-1,537.2L-1,537.2z" class="st1"/><path d="M134.5,183.4c9.4,0,17,7.6,17,17s-7.6,17-17,17s-17-7.6-17-17c0,0,0,0,0,0C117.5,191,125.1,183.4,134.5,183.4z" class="st3"/><path d="M73.8,183.4c9.4,0,17,7.6,17,17s-7.6,17-17,17s-17-7.6-17-17c0,0,0,0,0,0C56.8,191,64.4,183.4,73.8,183.4z" class="st4"/><path d="M13.2,183.4c9.4,0,17,7.6,17,17s-7.6,17-17,17s-17-7.6-17-17c0,0,0,0,0,0C-3.8,191,3.8,183.4,13.2,183.4z" class="st5"/><path d="M377.3,516.4c-8.7,0-15.8,7.1-15.8,15.8c0,0,0,0,0,0v-9.4c0-8.6-7-15.6-15.6-15.6c-7.6,0-14.1,5.4-15.4,12.9	v-7.3c0-8.3-6.7-15-14.9-15c-8.3,0-15,6.7-15,14.9c0,0,0,0,0,0h-0.3v-99.2c0-9.5-7.7-17.3-17.3-17.3s-17.3,7.7-17.3,17.3v138.9	l-11.4-16.5c-8.5-12.3-22.5-19.6-37.4-19.7c-3.3,0-6,2.7-6,6c0,0.9,0.2,1.7,0.5,2.5l1,2.3c4.8,10.8,8.7,21.9,11.6,33.3l12.7,50	c4.7,15.7,19.1,26.4,35.5,26.4H356c20.5,0,37.1-16.6,37.1-37.1c0,0,0,0,0,0v-67.7C393.1,523.5,386,516.4,377.3,516.4L377.3,516.4z" class="st6"/><g><path d="M31.1,374.1h57.4c4.8,0,8.7-3.9,8.7-8.7V346c0-3.3-2.7-6-6-6s-6,2.7-6,6v16.2H34.3v-50.8h25.5c3.3,0,6-2.7,6-6 c0-3.3-2.7-6-6-6H31.1c-4.8,0-8.7,3.9-8.7,8.7v57.4C22.3,370.2,26.2,374.1,31.1,374.1L31.1,374.1z" class="st7"/><path d="M102.2,295.9c-2.5-2.1-6.3-1.8-8.4,0.8c0,0,0,0,0,0l-28.6,34.4l-9.2-7.4c-2.6-2.1-6.3-1.8-8.4,0.8 c-2.1,2.6-1.8,6.3,0.8,8.4c0,0,0.1,0.1,0.1,0.1l11,8.9c3.8,3.1,9.2,2.8,12.7-0.6l0.2-0.2l30.6-36.8 C105.1,301.8,104.7,298.1,102.2,295.9C102.2,295.9,102.2,295.9,102.2,295.9L102.2,295.9z" class="st7"/><path d="M393.1,303.5H159c-3.3,0-6,2.7-6,6c0,3.3,2.7,6,6,6h234.1c3.3,0,6-2.7,6-6 C399.1,306.2,396.4,303.5,393.1,303.5z" class="st7"/><path d="M393.1,353.2H159c-3.3,0-6,2.7-6,6c0,3.3,2.7,6,6,6h234.1c3.3,0,6-2.7,6-6 C399.1,355.9,396.4,353.2,393.1,353.2z" class="st7"/><path d="M91.2,467.1c-3.3,0-6,2.7-6,6v16.2H34.3v-50.8h25.5c3.3,0,6-2.7,6-6s-2.7-6-6-6H31.1c-4.8,0-8.7,3.9-8.7,8.7 v57.4c0,4.8,3.9,8.7,8.7,8.7h57.4c4.8,0,8.7-3.9,8.7-8.7v-19.4C97.2,469.8,94.6,467.1,91.2,467.1z" class="st7"/><path d="M102.2,423.1c-2.5-2.1-6.3-1.8-8.4,0.8c0,0,0,0,0,0l-28.6,34.4l-9.2-7.4c-2.6-2.1-6.3-1.8-8.4,0.8 c-2.1,2.6-1.8,6.3,0.8,8.4c0,0,0.1,0.1,0.1,0.1l11,8.9c3.8,3.1,9.2,2.8,12.7-0.6l0.2-0.2l30.6-36.8 C105.1,429,104.7,425.2,102.2,423.1C102.2,423.1,102.2,423.1,102.2,423.1z" class="st7"/><path d="M393.1,430.6h-48.7c-3.3,0-6,2.7-6,6s2.7,6,6,6h48.7c3.3,0,6-2.7,6-6S396.4,430.6,393.1,430.6L393.1,430.6z" class="st7"/><path d="M235,430.6h-76c-3.3,0-6,2.7-6,6s2.7,6,6,6h76c3.3,0,6-2.7,6-6S238.3,430.6,235,430.6z" class="st7"/><path d="M179.5,480.4H159c-3.3,0-6,2.7-6,6s2.7,6,6,6h20.5c3.3,0,6-2.7,6-6S182.8,480.4,179.5,480.4z" class="st7"/><path d="M423.4,151H-9.4c-15.3,0-27.6,12.4-27.6,27.6v358.6c0,15.2,12.4,27.6,27.6,27.6l228.8,1.6L231,612 c0,0.1,0,0.2,0.1,0.2c5.4,18.3,22.2,30.8,41.3,30.7H356c23.8,0,43.1-19.3,43.1-43.1v-33.7l24.4-1.3c15.2-0.1,27.4-12.4,27.5-27.6 V178.6C451,163.4,438.6,151,423.4,151L423.4,151z M-9.4,163h432.7c8.6,0,15.6,7,15.6,15.6v60.7H-25v-60.7C-25,170-18,163-9.4,163 L-9.4,163z M387.1,599.9c0,17.2-13.9,31.1-31.1,31.1h-83.7c-13.7,0.1-25.8-8.9-29.7-22.1L229.9,559c-3-11.8-7-23.2-11.9-34.3 l-1-2.3c13,0,25.1,6.4,32.5,17.1l10.3,14.9v22.3c0,3.3,2.7,6,6,6s6-2.7,6-6l0,0V413.6c0-6.2,5-11.3,11.3-11.3 c6.2,0,11.3,5,11.3,11.3c0,0,0,0,0,0v106.5c0,0.6,0.1,1.2,0.3,1.7v24.5c0,3.3,2.7,6,6,6s6-2.7,6-6v-33.5c0-4.9,4-9,8.9-9 c4.9,0,9,4,9,8.9c0,0,0,0,0,0v6.8c-0.2,1-0.2,2.1-0.2,3.2v23.6c0,3.3,2.7,6,6,6h0.1c0,0,0.1,0,0.1,0c3.3,0,6-2.7,6-6v-25.6 c1.1-5.2,6.3-8.5,11.5-7.3c4.4,1,7.6,4.9,7.6,9.4v29.8c0,3.3,2.7,6,6,6s6-2.7,6-6v-20.4c-0.1-5.4,4.3-9.8,9.7-9.9 c5.4-0.1,9.8,4.3,9.9,9.7c0,0.1,0,0.1,0,0.2L387.1,599.9z M423.4,552.9c-0.1,0-0.2,0-0.3,0l-23.9,1.3v-22c0-12-9.7-21.8-21.7-21.8 c-4.2,0-8.2,1.2-11.7,3.4c-4.9-10.9-17.7-15.7-28.6-10.8c-0.8,0.4-1.6,0.8-2.3,1.2c-4.7-10.5-17-15.3-27.5-10.6 c-0.3,0.1-0.5,0.2-0.8,0.4v-80.4c0-12.9-10.4-23.3-23.3-23.3c-12.9,0-23.3,10.4-23.3,23.3c0,0,0,0,0,0v119.7l-0.4-0.6 c-9.6-13.9-25.5-22.2-42.4-22.2c-6.7,0-12,5.4-12,12c0,1.7,0.4,3.4,1.1,4.9l1,2.3c3.6,8.1,6.7,16.4,9.2,24.8l-225.6-1.6 c-8.6,0-15.6-7-15.6-15.6V251.4h464v285.9C439,545.9,432,552.9,423.4,552.9L423.4,552.9z" class="st7"/><path d="M13.2,223.4c12.7,0,23-10.3,23-23s-10.3-23-23-23s-23,10.3-23,23C-9.8,213.1,0.5,223.4,13.2,223.4z M13.2,189.4c6.1,0,11,4.9,11,11s-4.9,11-11,11s-11-4.9-11-11C2.2,194.4,7.1,189.4,13.2,189.4z" class="st7"/><path d="M73.8,223.4c12.7,0,23-10.3,23-23s-10.3-23-23-23s-23,10.3-23,23C50.8,213.1,61.1,223.4,73.8,223.4z M73.8,189.4c6.1,0,11,4.9,11,11s-4.9,11-11,11c-6.1,0-11-4.9-11-11C62.8,194.4,67.8,189.4,73.8,189.4z" class="st7"/><path d="M134.5,223.4c12.7,0,23-10.3,23-23s-10.3-23-23-23s-23,10.3-23,23C111.5,213.1,121.8,223.4,134.5,223.4z M134.5,189.4c6.1,0,11,4.9,11,11s-4.9,11-11,11s-11-4.9-11-11C123.5,194.4,128.4,189.4,134.5,189.4z" class="st7"/><path d="M224,205.3h194.9c3.3,0,6-2.7,6-6s-2.7-6-6-6l0,0H224c-3.3,0-6,2.7-6,6S220.7,205.3,224,205.3z" class="st7"/></g></svg>