<svg xmlns="http://www.w3.org/2000/svg" xmlns:xlink="http://www.w3.org/1999/xlink" id="Camada_1" x="0" y="0" version="1.1" viewBox="-62.7 163 451.4 468" xml:space="preserve" style="enable-background:new -62.7 163 451.4 468"><style type="text/css">.st0{fill:#4671c6}.st1{fill:#f9cfcf}.st2{fill:#e0ebfc}.st3{fill:#3762cc}.st4{fill:#f9a7a7}.st5{fill:#ffea92}.st6{fill:#a4c9ff}</style><g><path d="M384.7,228v-32.5c0-15.7-12.7-28.5-28.3-28.5H-30.4c-15.6,0-28.3,12.7-28.3,28.5v46.8h443.4V228z" class="st0"/><path d="M343.1,204.2l5-5.1c3.2-3.3,3.5-9,0.6-12.7c-2.9-3.7-7.9-4-11.1-0.7l-6.3,6.4l-6.3-6.4 c-3.2-3.3-8.2-3-11.1,0.7c-2.9,3.7-2.6,9.3,0.6,12.7l5,5.1l-5,5.1c-3.2,3.3-3.5,9-0.6,12.7c1.6,2,3.7,3,5.9,3 c1.9,0,3.7-0.8,5.3-2.3l6.3-6.4l6.3,6.4c1.5,1.5,3.4,2.3,5.3,2.3c2.2,0,4.3-1,5.9-3c2.9-3.7,2.6-9.3-0.6-12.7L343.1,204.2z" class="st1"/><path d="M281.8,214.5h-16.7c-2.7,0-4.9-2.2-4.9-4.9v-20.3c0-2.7,2.2-4.9,4.9-4.9h16.7c2.7,0,4.9,2.2,4.9,4.9v20.3 C286.7,212.3,284.5,214.5,281.8,214.5z" class="st1"/><path d="M218.4,219.1h-25c-5.1,0-9.3-4.7-9.3-10.5c0-5.8,4.1-10.5,9.3-10.5h25c5.1,0,9.3,4.7,9.3,10.5 C227.7,214.3,223.5,219.1,218.4,219.1z" class="st1"/><path d="M268.6,224h-16.7c-2.7,0-4.9-2.2-4.9-4.9v-20.3c0-2.7,2.2-4.9,4.9-4.9h16.7c2.7,0,4.9,2.2,4.9,4.9v20.3 C273.5,221.8,271.3,224,268.6,224z" class="st2"/><path d="M356.3,550.5H-30.3c-17.9,0-32.4-14.5-32.4-32.4V195.4c0-17.9,14.5-32.4,32.4-32.4h386.6 c17.9,0,32.4,14.5,32.4,32.4v322.7C388.7,536,374.2,550.5,356.3,550.5z M-30.3,171c-13.5,0-24.4,10.9-24.4,24.4v322.7 c0,13.4,10.9,24.4,24.4,24.4h386.6c13.4,0,24.4-10.9,24.4-24.4V195.4c0-13.4-10.9-24.4-24.4-24.4H-30.3z" class="st3"/><path d="M216.9,525H109.1c-3.3,0-6-2.7-6-6v-32c0-3.3,2.7-6,6-6h107.9c3.3,0,6,2.7,6,6v32 C222.9,522.3,220.2,525,216.9,525z" class="st4"/><path d="M156.5,253.8l-94.2,37.1c-4.5,1.8-4.4,8.2,0.1,9.9l94.4,34.3c2.4,0.9,5,0.9,7.3,0l94.4-34.3 c4.5-1.7,4.6-8.1,0.1-9.8l-94.3-37.1C161.9,252.8,159.1,252.8,156.5,253.8z" class="st0"/><path d="M160.5,339.7c-1.7,0-3.4-0.3-5-0.9l-94.4-34.3c-3.7-1.3-6-4.7-6.1-8.6c-0.1-3.9,2.3-7.3,5.9-8.7l94.2-37.1 c3.5-1.4,7.3-1.4,10.8,0l94.3,37.1c3.6,1.4,5.9,4.8,5.9,8.7c-0.1,3.9-2.4,7.2-6.1,8.6l-94.4,34.3 C163.9,339.4,162.2,339.7,160.5,339.7z M160.5,257c-0.8,0-1.7,0.2-2.5,0.5l-94.2,37.1c-0.7,0.3-0.8,0.8-0.8,1.2 c0,0.4,0.2,0.9,0.8,1.2l94.4,34.3c1.5,0.5,3.1,0.5,4.6,0l94.4-34.3c0.7-0.2,0.8-0.8,0.8-1.2c0-0.4-0.1-0.9-0.8-1.2l-94.3-37.1 C162.1,257.2,161.3,257,160.5,257z M156.5,253.8L156.5,253.8L156.5,253.8z" class="st3"/><path d="M262,295.6c0.3-2.7-1.7-4.9-4.4-4.9h-92.4c-2.5,0-4.9,1.8-5.1,4.4c-0.3,2.9,2,5.4,4.8,5.4h85 c1.3,0,2.4,1.1,2.4,2.4v53.7c0,2.5,1.8,4.9,4.4,5.1c2.9,0.3,5.4-2,5.4-4.8L262,295.6C262,295.6,262,295.6,262,295.6z" class="st5"/><path d="M264.6,380.3h-15c-1.3,0-2.4-1.1-2.4-2.4v-15.7c0-5.5,4.4-9.9,9.9-9.9h0c5.5,0,9.9,4.4,9.9,9.9v15.7 C267,379.3,265.9,380.3,264.6,380.3z" class="st5"/><path d="M267.1,423H62.5c-10.8,0-19.6-8.8-19.6-19.6c0-10.8,8.8-19.6,19.6-19.6h204.6c10.8,0,19.6,8.8,19.6,19.6 S277.9,423,267.1,423z" class="st6"/><path d="M267.1,470.1H62.5c-10.8,0-19.6-8.8-19.6-19.6c0-10.8,8.8-19.6,19.6-19.6h204.6c10.8,0,19.6,8.8,19.6,19.6 S277.9,470.1,267.1,470.1z" class="st6"/><g><path d="M66.6,400.2l-3.6-5.5c-0.3-0.4-0.7-0.6-1.2-0.6h-2.1c-0.8,0-1.4,0.6-1.4,1.4v15.8c0,0.8,0.6,1.4,1.4,1.4h1.8 c0.8,0,1.4-0.6,1.4-1.4v-3.9c0-1.4,1.9-2,2.6-0.8l3.6,5.5c0.3,0.4,0.7,0.6,1.2,0.6h2.1c0.8,0,1.4-0.6,1.4-1.4v-15.8 c0-0.8-0.6-1.4-1.4-1.4h-1.9c-0.8,0-1.4,0.6-1.4,1.4v3.9C69.3,400.8,67.4,401.4,66.6,400.2z" class="st2"/><path d="M84.5,395l-5.7,15.8c-0.3,0.9,0.4,1.9,1.4,1.9h1.9c0.6,0,1.2-0.4,1.4-1l0.5-1.5c0.2-0.6,0.7-1,1.4-1h3.5 c0.6,0,1.2,0.4,1.4,1l0.5,1.5c0.2,0.6,0.7,1,1.4,1h1.9c1,0,1.7-1,1.4-1.9L89.8,395c-0.2-0.6-0.7-1-1.4-1h-2.5 C85.3,394.1,84.7,394.5,84.5,395z M85.8,405.1l1.3-3.7l1.3,3.7H85.8z" class="st2"/><path d="M108.8,402.8l-3.5-7.8c-0.2-0.5-0.7-0.9-1.3-0.9h-2.2c-0.8,0-1.4,0.6-1.4,1.4v15.8c0,0.8,0.6,1.4,1.4,1.4h1.8 c0.8,0,1.4-0.6,1.4-1.4V405l3.1,6.9c0.2,0.5,0.7,0.9,1.3,0.9h1.3c0.6,0,1.1-0.3,1.3-0.9l3.1-6.9v6.3c0,0.8,0.6,1.4,1.4,1.4h1.9 c0.8,0,1.4-0.6,1.4-1.4v-15.8c0-0.8-0.6-1.4-1.4-1.4h-2.2c-0.6,0-1.1,0.3-1.3,0.9l-3.5,7.8C110.9,403.9,109.3,403.9,108.8,402.8z" class="st2"/><path d="M136.6,396.9v-1.3c0-0.8-0.6-1.4-1.4-1.4h-8.3c-0.8,0-1.4,0.6-1.4,1.4v15.8c0,0.8,0.6,1.4,1.4,1.4h8.3 c0.8,0,1.4-0.6,1.4-1.4V410c0-0.8-0.6-1.4-1.4-1.4h-3.6c-0.8,0-1.4-0.6-1.4-1.4v-0.2c0-0.8,0.6-1.4,1.4-1.4h2.9 c0.8,0,1.4-0.6,1.4-1.4v-1.3c0-0.8-0.6-1.4-1.4-1.4h-2.9c-0.8,0-1.4-0.6-1.4-1.4v0c0-0.8,0.6-1.4,1.4-1.4h3.6 C136,398.3,136.6,397.7,136.6,396.9z" class="st2"/><path d="M74.2,449.6c0,4.4-3.6,8-8,8s-8-3.6-8-8s3.6-8,8-8S74.2,445.2,74.2,449.6z" class="st2"/><path d="M98.1,449.6c0,4.4-3.6,8-8,8c-4.4,0-8-3.6-8-8s3.6-8,8-8C94.5,441.6,98.1,445.2,98.1,449.6z" class="st2"/><path d="M122.1,449.6c0,4.4-3.6,8-8,8s-8-3.6-8-8s3.6-8,8-8S122.1,445.2,122.1,449.6z" class="st2"/><path d="M146.1,449.6c0,4.4-3.6,8-8,8c-4.4,0-8-3.6-8-8s3.6-8,8-8C142.5,441.6,146.1,445.2,146.1,449.6z" class="st2"/><path d="M170,449.6c0,4.4-3.6,8-8,8s-8-3.6-8-8s3.6-8,8-8S170,445.2,170,449.6z" class="st2"/><path d="M194,449.6c0,4.4-3.6,8-8,8s-8-3.6-8-8s3.6-8,8-8S194,445.2,194,449.6z" class="st2"/><path d="M218,449.6c0,4.4-3.6,8-8,8s-8-3.6-8-8s3.6-8,8-8S218,445.2,218,449.6z" class="st2"/><path d="M241.9,449.6c0,4.4-3.6,8-8,8c-4.4,0-8-3.6-8-8s3.6-8,8-8C238.4,441.6,241.9,445.2,241.9,449.6z" class="st2"/></g><path d="M127.3,506.9v-12.4c0-0.6-0.4-1-1-1h-2.7c-0.6,0-1,0.4-1,1v16.6c0,0.6,0.4,1,1,1h8.4c0.6,0,1-0.4,1-1v-2.2 c0-0.6-0.4-1-1-1h-3.6C127.7,507.9,127.3,507.4,127.3,506.9z" class="st1"/><path d="M149.8,495.4c-10.9-6.7-21.1,3.4-14.3,14.4c0.1,0.1,0.2,0.3,0.4,0.4c10.9,6.7,21-3.5,14.3-14.3 C150.1,495.6,149.9,495.5,149.8,495.4z M142.8,507.9c-2.9,0-4.7-2-4.7-5.2c0-3.1,1.8-5.1,4.7-5.1c2.9,0,4.7,2,4.7,5.1 C147.5,505.9,145.7,507.9,142.8,507.9z" class="st1"/><path d="M161.9,502v2.2c0,0.6,0.4,1,1,1h5c-0.6,1.7-2,2.6-4,2.6c-2.8,0-4.7-2-4.7-5c0-3,1.8-5,4.7-5 c1.7,0,2.9,0.7,3.6,2l0.3,0.5h5.3l-0.5-1.4c-2.1-5.3-8.4-7.4-15.3-3.9c-0.2,0.1-0.3,0.2-0.4,0.4c-5.6,8.6-0.6,16.9,7.1,16.9 c4.7,0,8.6-3.4,9.2-8.1V502c0-0.6-0.4-1-1-1h-9.2C162.3,501,161.9,501.4,161.9,502z" class="st1"/><path d="M179.8,494.4v16.6c0,0.6,0.4,1,1,1h2.7c0.6,0,1-0.4,1-1v-16.6c0-0.6-0.4-1-1-1h-2.7 C180.2,493.4,179.8,493.9,179.8,494.4z" class="st1"/><path d="M198.7,494.4v5.8c0,1-1.3,1.4-1.8,0.6l-4.6-6.9c-0.2-0.3-0.5-0.4-0.8-0.4h-2.7c-0.6,0-1,0.4-1,1v16.7 c0,0.6,0.4,1,1,1h2.7c0.6,0,1-0.4,1-1v-5.8c0-1,1.3-1.4,1.8-0.6l4.6,6.9c0.2,0.3,0.5,0.4,0.8,0.4h2.7c0.6,0,1-0.4,1-1v-16.7 c0-0.6-0.4-1-1-1h-2.7C199.2,493.4,198.7,493.9,198.7,494.4z" class="st1"/><path d="M192.5,503.3l5.8,66.7c0.3,3.6,4.6,4.7,7.4,2l6-6c1.9-1.9,4.7-2.1,6.3-0.4l60.4,60.4c1.6,1.6,4.5,1.4,6.3-0.4 l35.4-35.4c1.9-1.9,2.1-4.7,0.4-6.3l-60.4-60.4c-1.6-1.6-1.4-4.5,0.4-6.3l6-6c2.8-2.8,1.6-7.1-2-7.4l-66.7-5.8 C195,497.6,192.3,500.3,192.5,503.3z" class="st4"/><path d="M281.2,631c-2.1,0-4.1-0.7-5.6-2.3l-60.4-60.4c0,0-0.3,0.1-0.7,0.4l-6,6c-2.5,2.5-6.1,3.3-9.2,2.2 c-2.9-1-4.8-3.6-5.1-6.7l-5.8-66.7c-0.2-2.6,0.7-5.2,2.7-7.1c1.9-1.9,4.5-2.9,7.1-2.7l66.7,5.8c3.1,0.3,5.6,2.2,6.7,5.1 c1.1,3.1,0.3,6.7-2.2,9.2l-6,6c-0.3,0.3-0.4,0.7-0.4,0.8l60.3,60.3c1.6,1.6,2.4,3.8,2.3,6.2c-0.1,2.2-1.1,4.2-2.7,5.8l-35.4,35.4 C285.8,630.1,283.5,631,281.2,631z M215.3,560.4c2.1,0,4.1,0.8,5.6,2.3l60.4,60.4c0,0,0.3-0.1,0.7-0.4l35.4-35.4 c0.3-0.3,0.4-0.7,0.4-0.8l-60.3-60.3c-1.6-1.6-2.4-3.8-2.3-6.2c0.1-2.2,1.1-4.2,2.7-5.8l6-6c0.2-0.2,0.3-0.5,0.4-0.6l-66.5-5.8 c-0.2,0-0.5,0.1-0.7,0.4c-0.2,0.2-0.4,0.5-0.4,0.7l5.8,66.5c0.1,0,0.4-0.1,0.6-0.4l6-6c1.6-1.6,3.6-2.5,5.8-2.7 C214.9,560.4,215.1,560.4,215.3,560.4z" class="st3"/><path d="M164.1,335.1c-2.4,0.9-5,0.9-7.3,0L101.4,315V347c0,2.1,1.3,3.9,3.4,4.6c13.1,4.4,62.4,18.4,111.5,0 c1.9-0.7,3.2-2.5,3.2-4.5V315L164.1,335.1z" class="st0"/><path d="M162.9,364.9c-27.9,0-50.6-6.5-59.4-9.5c-3.7-1.2-6.1-4.6-6.1-8.4V315c0-1.3,0.6-2.5,1.7-3.3 c1.1-0.7,2.4-0.9,3.7-0.5l55.4,20.1c1.5,0.5,3.1,0.5,4.6,0l55.4-20.1c1.2-0.4,2.6-0.3,3.7,0.5c1.1,0.7,1.7,2,1.7,3.3v32.2 c0,3.7-2.3,7-5.8,8.3C198.8,362.5,179.9,364.9,162.9,364.9z M105.4,320.7V347c0,0.4,0.3,0.7,0.7,0.8c13.5,4.5,61.2,17.9,108.8,0.1 c0.4-0.1,0.6-0.5,0.6-0.8v-26.5l-50,18.2c-3.2,1.2-6.8,1.2-10.1,0L105.4,320.7z M164.1,335.1L164.1,335.1L164.1,335.1z" class="st3"/></g></svg>